






v  -2.00 -1.92 2.00
v  -0.67 -0.53 2.00
v  0.67 -0.53 2.00
v  2.00 -1.92 2.00
v  -2.00 -1.92 -2.00
v  -0.67 -0.53 -2.00
v  0.67 -0.53 -2.00
v  2.00 -1.92 -2.00
v  -2.00 -0.01 2.00
v  -0.67 -0.01 2.00
v  0.67 -0.01 2.00
v  2.00 -0.01 2.00
v  -2.00 -0.01 -2.00
v  -0.67 -0.01 -2.00
v  0.67 -0.01 -2.00
v  2.00 -0.01 -2.00


vn 0.72 -0.69 -0.00
vn 0.72 -0.69 -0.00
vn 0.39 -0.92 -0.00
vn 0.39 -0.92 -0.00
vn 0.39 -0.92 -0.00
vn 0.72 -0.69 -0.00
vn 0.39 -0.92 -0.00
vn 0.39 -0.92 -0.00
vn -0.39 -0.92 -0.00
vn -0.39 -0.92 -0.00
vn -0.39 -0.92 -0.00
vn 0.39 -0.92 -0.00
vn -0.39 -0.92 -0.00
vn -0.39 -0.92 -0.00
vn -0.72 -0.69 -0.00
vn -0.72 -0.69 -0.00
vn -0.72 -0.69 -0.00
vn -0.39 -0.92 -0.00
vn 0.00 1.00 -0.00
vn 0.00 1.00 -0.00
vn 0.00 1.00 -0.00
vn 0.00 1.00 -0.00
vn 0.00 1.00 -0.00
vn 0.00 1.00 -0.00
vn 0.00 1.00 -0.00
vn 0.00 1.00 -0.00
vn 0.00 1.00 -0.00
vn 0.00 1.00 -0.00
vn 0.00 1.00 -0.00
vn 0.00 1.00 -0.00
vn 0.00 1.00 -0.00
vn 0.00 1.00 -0.00
vn 0.00 1.00 -0.00
vn 0.00 1.00 -0.00
vn 0.00 1.00 -0.00
vn 0.00 1.00 -0.00
vn 0.00 0.00 1.00
vn 0.00 0.00 1.00
vn 0.00 0.00 1.00
vn 0.00 0.00 1.00
vn 0.00 0.00 1.00
vn 0.00 0.00 1.00
vn 0.00 0.00 1.00
vn 0.00 0.00 1.00
vn 0.00 0.00 1.00
vn 0.00 0.00 1.00
vn 0.00 0.00 1.00
vn 0.00 0.00 1.00
vn 0.00 0.00 1.00
vn 0.00 0.00 1.00
vn 0.00 0.00 1.00
vn 0.00 0.00 1.00
vn 0.00 0.00 1.00
vn 0.00 0.00 1.00
vn 1.00 0.00 -0.00
vn 1.00 0.00 -0.00
vn 1.00 0.00 -0.00
vn 1.00 0.00 -0.00
vn 1.00 0.00 -0.00
vn 1.00 0.00 -0.00
vn 0.00 0.00 -1.00
vn 0.00 0.00 -1.00
vn 0.00 0.00 -1.00
vn 0.00 0.00 -1.00
vn 0.00 0.00 -1.00
vn 0.00 0.00 -1.00
vn 0.00 0.00 -1.00
vn 0.00 0.00 -1.00
vn 0.00 0.00 -1.00
vn 0.00 0.00 -1.00
vn 0.00 0.00 -1.00
vn 0.00 0.00 -1.00
vn 0.00 0.00 -1.00
vn 0.00 0.00 -1.00
vn 0.00 0.00 -1.00
vn 0.00 0.00 -1.00
vn 0.00 0.00 -1.00
vn 0.00 0.00 -1.00
vn -1.00 0.00 -0.00
vn -1.00 0.00 -0.00
vn -1.00 0.00 -0.00
vn -1.00 0.00 -0.00
vn -1.00 0.00 -0.00
vn -1.00 0.00 -0.00


vt 1.00 0.00 0.00
vt 1.00 1.00 0.00
vt 0.67 1.00 0.00
vt 0.67 0.00 0.00
vt 0.33 1.00 0.00
vt 0.33 0.00 0.00
vt -0.00 1.00 0.00
vt -0.00 0.00 0.00
vt 0.00 0.00 0.00
vt 0.00 1.00 0.00



f 1/1/1 5/2/2 6/3/3 
f 6/3/4 2/4/5 1/1/6 
f 2/4/7 6/3/8 7/5/9 
f 7/5/10 3/6/11 2/4/12 
f 3/6/13 7/5/14 8/7/15 
f 8/7/16 4/8/17 3/6/18 
f 9/9/19 10/6/20 14/5/21 
f 14/5/22 13/10/23 9/9/24 
f 10/6/25 11/4/26 15/3/27 
f 15/3/28 14/5/29 10/6/30 
f 11/4/31 12/1/32 16/2/33 
f 16/2/34 15/3/35 11/4/36 
f 1/9/37 2/6/38 10/5/39 
f 10/5/40 9/10/41 1/9/42 
f 2/6/43 3/4/44 11/3/45 
f 11/3/46 10/5/47 2/6/48 
f 3/4/49 4/1/50 12/2/51 
f 12/2/52 11/3/53 3/4/54 
f 4/9/55 8/1/56 16/2/57 
f 16/2/58 12/10/59 4/9/60 
f 8/9/61 7/6/62 15/5/63 
f 15/5/64 16/10/65 8/9/66 
f 7/6/67 6/4/68 14/3/69 
f 14/3/70 15/5/71 7/6/72 
f 6/4/73 5/1/74 13/2/75 
f 13/2/76 14/3/77 6/4/78 
f 5/9/79 1/1/80 9/2/81 
f 9/2/82 13/10/83 5/9/84 


