






v  -0.04 -0.18 -1.81
v  -0.07 -0.22 -1.63
v  -0.36 1.93 -1.32
v  -0.31 1.94 -1.66
v  0.11 -0.20 -1.61
v  -0.01 1.94 -1.27
v  0.13 -0.16 -1.78
v  0.03 1.96 -1.61
v  1.60 -0.36 1.58
v  1.60 -0.41 1.73
v  1.60 0.53 2.00
v  1.59 0.57 1.60
v  1.75 -0.42 1.73
v  1.99 0.45 1.99
v  1.76 -0.37 1.58
v  1.99 0.49 1.59
v  -1.57 -0.36 1.58
v  -1.56 0.57 1.60
v  -1.56 0.53 2.00
v  -1.56 -0.41 1.73
v  -1.96 0.45 1.99
v  -1.72 -0.42 1.73
v  -1.96 0.49 1.59
v  -1.72 -0.37 1.58
v  -1.57 -0.36 -1.56
v  -1.56 -0.41 -1.71
v  -1.56 0.53 -1.98
v  -1.56 0.57 -1.58
v  -1.72 -0.42 -1.71
v  -1.96 0.45 -1.97
v  -1.72 -0.37 -1.56
v  -1.96 0.49 -1.57
v  1.60 -0.36 -1.56
v  1.59 0.57 -1.58
v  1.60 0.53 -1.98
v  1.60 -0.41 -1.71
v  1.99 0.45 -1.97
v  1.75 -0.42 -1.71
v  1.99 0.49 -1.57
v  1.76 -0.37 -1.56
v  0.09 -0.18 1.42
v  0.39 1.95 1.52
v  0.44 1.93 1.92
v  0.11 -0.22 1.57
v  0.04 1.94 1.98
v  -0.04 -0.20 1.59
v  -0.01 1.96 1.58
v  -0.06 -0.16 1.44
v  1.44 -0.18 0.10
v  1.54 1.95 -0.20
v  1.94 1.93 -0.25
v  1.59 -0.22 0.08
v  2.00 1.94 0.15
v  1.61 -0.20 0.23
v  1.60 1.96 0.21
v  1.46 -0.16 0.25
v  -1.46 -0.18 0.10
v  -1.62 -0.22 0.08
v  -1.97 1.93 -0.25
v  -1.57 1.95 -0.20
v  -1.64 -0.20 0.23
v  -2.03 1.94 0.15
v  -1.49 -0.16 0.25
v  -1.63 1.96 0.21


vn -0.62 -0.02 -0.78
vn -0.78 -0.22 0.59
vn -0.77 -0.22 0.60
vn -0.64 -0.03 -0.77
vn 0.59 -0.11 0.80
vn 0.57 -0.11 0.81
vn 0.80 0.10 -0.60
vn 0.80 0.10 -0.59
vn -0.03 1.00 0.04
vn -0.73 0.02 -0.68
vn -0.73 -0.22 0.65
vn -0.71 -0.22 0.67
vn -0.74 0.01 -0.67
vn 0.61 -0.43 0.66
vn 0.61 -0.42 0.67
vn 0.67 -0.19 -0.72
vn 0.68 -0.20 -0.71
vn 0.18 0.98 0.08
vn 0.73 0.02 -0.68
vn 0.74 0.01 -0.67
vn 0.71 -0.22 0.67
vn 0.73 -0.22 0.65
vn -0.61 -0.42 0.67
vn -0.61 -0.43 0.66
vn -0.68 -0.20 -0.71
vn -0.67 -0.19 -0.72
vn -0.18 0.98 0.08
vn 0.73 0.02 0.68
vn 0.73 -0.22 -0.65
vn 0.71 -0.22 -0.67
vn 0.74 0.01 0.67
vn -0.61 -0.43 -0.66
vn -0.61 -0.42 -0.67
vn -0.67 -0.19 0.72
vn -0.68 -0.20 0.71
vn -0.18 0.98 -0.08
vn -0.73 0.02 0.68
vn -0.74 0.01 0.67
vn -0.71 -0.22 -0.67
vn -0.73 -0.22 -0.65
vn 0.61 -0.42 -0.67
vn 0.61 -0.43 -0.66
vn 0.68 -0.20 0.71
vn 0.67 -0.19 0.72
vn 0.18 0.98 -0.08
vn 0.63 -0.05 -0.78
vn 0.64 -0.06 -0.76
vn 0.77 -0.25 0.59
vn -0.57 -0.14 0.81
vn -0.58 -0.14 0.80
vn -0.80 0.06 -0.59
vn -0.80 0.06 -0.60
vn 0.03 1.00 0.04
vn -0.78 -0.05 -0.63
vn -0.76 -0.06 -0.64
vn 0.59 -0.25 -0.77
vn 0.81 -0.14 0.57
vn 0.80 -0.14 0.58
vn -0.59 0.06 0.80
vn -0.60 0.06 0.80
vn 0.04 1.00 -0.03
vn 0.78 -0.05 -0.63
vn -0.59 -0.25 -0.77
vn 0.76 -0.06 -0.64
vn -0.80 -0.14 0.58
vn -0.81 -0.14 0.57
vn 0.60 0.06 0.80
vn 0.59 0.06 0.80
vn -0.04 1.00 -0.03


vt 0.15 0.77 0.00
vt 0.15 0.75 0.00
vt 0.28 0.75 0.00
vt 0.28 0.77 0.00
vt 0.13 0.77 0.00
vt 0.13 0.75 0.00
vt 0.28 0.68 0.00
vt 0.28 0.70 0.00
vt 0.22 0.70 0.00
vt 0.22 0.68 0.00
vt 0.20 0.68 0.00
vt 0.20 0.70 0.00




f 1/1/1 2/2/2 3/3/3 
f 3/3/3 4/4/4 1/1/1 
f 2/1/2 5/2/5 6/3/6 
f 6/3/6 3/4/3 2/1/2 
f 5/1/5 7/2/7 8/3/8 
f 8/3/8 6/4/6 5/1/5 
f 7/1/7 1/2/1 4/3/4 
f 4/3/4 8/4/8 7/1/7 

f 6/5/9 8/6/9 4/2/9 
f 4/2/9 3/1/9 6/5/9 

f 9/7/10 10/8/11 11/9/12 
f 11/9/12 12/10/13 9/7/10 
f 10/7/11 13/8/14 14/9/15 
f 14/9/15 11/10/12 10/7/11 
f 13/7/14 15/8/16 16/9/17 
f 16/9/17 14/10/15 13/7/14 
f 15/7/16 9/8/10 12/9/13 
f 12/9/13 16/10/17 15/7/16 

f 14/9/18 16/10/18 12/11/18 
f 12/11/18 11/12/18 14/9/18 

f 17/7/19 18/10/20 19/9/21 
f 19/9/21 20/8/22 17/7/19 
f 20/7/22 19/10/21 21/9/23 
f 21/9/23 22/8/24 20/7/22 
f 22/7/24 21/10/23 23/9/25 
f 23/9/25 24/8/26 22/7/24 
f 24/7/26 23/10/25 18/9/20 
f 18/9/20 17/8/19 24/7/26 

f 21/9/27 19/12/27 18/11/27 
f 18/11/27 23/10/27 21/9/27 

f 25/7/28 26/8/29 27/9/30 
f 27/9/30 28/10/31 25/7/28 
f 26/7/29 29/8/32 30/9/33 
f 30/9/33 27/10/30 26/7/29 
f 29/7/32 31/8/34 32/9/35 
f 32/9/35 30/10/33 29/7/32 
f 31/7/34 25/8/28 28/9/31 
f 28/9/31 32/10/35 31/7/34 

f 30/9/36 32/10/36 28/11/36 
f 28/11/36 27/12/36 30/9/36 

f 33/7/37 34/10/38 35/9/39 
f 35/9/39 36/8/40 33/7/37 
f 36/7/40 35/10/39 37/9/41 
f 37/9/41 38/8/42 36/7/40 
f 38/7/42 37/10/41 39/9/43 
f 39/9/43 40/8/44 38/7/42 
f 40/7/44 39/10/43 34/9/38 
f 34/9/38 33/8/37 40/7/44 

f 37/9/45 35/12/45 34/11/45 
f 34/11/45 39/10/45 37/9/45 

f 41/2/46 42/3/47 43/4/48 
f 43/4/48 44/1/48 41/2/46 
f 44/2/48 43/3/48 45/4/49 
f 45/4/49 46/1/50 44/2/48 
f 46/2/50 45/3/49 47/4/51 
f 47/4/51 48/1/52 46/2/50 
f 48/2/52 47/3/51 42/4/47 
f 42/4/47 41/1/46 48/2/52 

f 45/1/53 43/5/53 42/6/53 
f 42/6/53 47/2/53 45/1/53 

f 49/2/54 50/3/55 51/4/56 
f 51/4/56 52/1/56 49/2/54 
f 52/2/56 51/3/56 53/4/57 
f 53/4/57 54/1/58 52/2/56 
f 54/2/58 53/3/57 55/4/59 
f 55/4/59 56/1/60 54/2/58 
f 56/2/60 55/3/59 50/4/55 
f 50/4/55 49/1/54 56/2/60 

f 53/1/61 51/5/61 50/6/61 
f 50/6/61 55/2/61 53/1/61 

f 57/2/62 58/1/63 59/4/63 
f 59/4/63 60/3/64 57/2/62 
f 58/2/63 61/1/65 62/4/66 
f 62/4/66 59/3/63 58/2/63 
f 61/2/65 63/1/67 64/4/68 
f 64/4/68 62/3/66 61/2/65 
f 63/2/67 57/1/62 60/4/64 
f 60/4/64 64/3/68 63/2/67 

f 62/1/69 64/2/69 60/6/69 
f 60/6/69 59/5/69 62/1/69 


