






v  0.84 1.22 0.70
v  0.84 1.71 0.70
v  0.84 2.06 1.05
v  0.84 2.06 1.65
v  0.84 1.71 2.00
v  0.84 1.22 2.00
v  0.84 0.87 1.65
v  0.84 0.87 1.05
v  0.51 1.71 2.00
v  0.51 1.22 2.00
v  0.51 2.06 1.05
v  0.51 2.06 1.65
v  0.51 1.71 0.70
v  -1.68 0.10 1.61
v  0.14 0.10 1.61
v  0.14 0.10 -0.60
v  -1.68 0.10 -0.60
v  0.22 -0.06 1.86
v  0.40 -0.04 1.85
v  0.48 2.70 0.63
v  0.13 2.69 0.63
v  0.40 -0.08 1.67
v  0.48 2.57 0.31
v  0.14 -0.00 1.77
v  0.14 -0.00 -0.75
v  0.22 -0.14 -0.68
v  0.40 -0.12 -0.67
v  0.48 2.55 0.70
v  0.13 2.54 0.70
v  0.40 -0.00 -0.81
v  0.48 2.71 0.40
v  -1.76 -0.06 1.86
v  -1.58 -0.04 1.85
v  -1.49 2.70 0.63
v  -1.84 2.69 0.63
v  -1.58 -0.08 1.67
v  -1.49 2.57 0.31
v  -1.96 2.76 0.73
v  -0.60 2.73 0.70
v  -0.60 2.73 0.44
v  -1.96 2.76 0.38
v  0.75 2.78 0.76
v  0.75 2.78 0.38
v  -1.96 2.44 0.73
v  -0.60 2.49 0.70
v  0.75 2.43 0.76
v  0.75 2.43 0.38
v  -1.63 -0.00 1.77
v  0.26 -0.00 1.77
v  0.26 2.68 0.51
v  -1.63 2.68 0.51
v  0.14 2.41 0.51
v  -1.68 2.41 0.51
v  -0.84 1.19 -0.65
v  -0.84 2.76 -0.67
v  -1.29 2.86 -0.67
v  -1.29 1.55 -0.65
v  -0.40 1.55 -0.65
v  -0.40 1.55 -0.92
v  -0.40 2.72 -0.90
v  -0.40 2.86 -0.67
v  -0.84 3.14 -1.16
v  -1.29 3.23 -1.16
v  -0.40 2.97 -1.16
v  -0.40 3.23 -1.16
v  -1.29 1.52 -1.40
v  -0.40 1.55 -1.40
v  -0.40 2.72 -1.42
v  -1.29 2.72 -1.42
v  -0.40 1.55 -1.66
v  -0.40 2.86 -1.64
v  -0.84 2.76 -1.64
v  -1.29 2.86 -1.64
v  0.31 1.19 -0.65
v  0.31 2.76 -0.67
v  -0.14 2.86 -0.67
v  -0.14 1.55 -0.65
v  0.75 1.55 -0.65
v  0.75 1.55 -0.92
v  0.75 2.72 -0.90
v  0.75 2.86 -0.67
v  0.31 3.14 -1.16
v  -0.14 3.23 -1.16
v  0.75 2.97 -1.16
v  0.75 3.23 -1.16
v  -0.14 1.52 -1.40
v  0.75 1.55 -1.40
v  0.75 2.72 -1.42
v  -0.14 2.72 -1.42
v  0.75 1.55 -1.66
v  0.75 2.86 -1.64
v  0.31 2.76 -1.64
v  -0.14 2.86 -1.64
v  -1.56 -0.35 -1.76
v  -1.34 -0.35 -1.76
v  -1.26 2.91 -0.49
v  -1.64 2.91 -0.49
v  -1.34 -0.28 -1.97
v  -1.26 2.99 -0.85
v  -1.64 2.99 -0.85
v  -1.87 -0.27 -0.19
v  -1.65 -0.27 -0.19
v  -1.57 2.98 -1.36
v  -1.95 2.98 -1.36
v  -1.65 -0.34 -0.41
v  -1.57 2.89 -1.72
v  -1.95 2.89 -1.72
v  0.78 -0.27 -0.19
v  1.01 -0.27 -0.19
v  1.09 2.98 -1.36
v  0.70 2.98 -1.36
v  1.01 -0.34 -0.41
v  1.09 2.89 -1.72
v  0.70 2.89 -1.72
v  1.09 -0.35 -1.76
v  1.32 -0.35 -1.76
v  1.40 2.91 -0.49
v  1.01 2.91 -0.49
v  1.32 -0.28 -1.97
v  1.40 2.99 -0.85
v  1.01 2.99 -0.85
v  -2.18 2.86 -1.08
v  1.82 2.86 -1.08
v  1.82 2.73 -1.35
v  -2.18 2.73 -1.35
v  1.82 2.59 -0.95
v  1.82 2.46 -1.22
v  -2.18 2.59 -0.95
v  1.13 0.80 1.92
v  1.93 0.80 1.92
v  1.93 0.80 0.90
v  1.13 0.80 0.90
v  1.13 0.00 1.92
v  1.93 0.00 1.92
v  1.93 0.00 0.90
v  -0.80 0.36 -1.00
v  0.84 0.36 -1.00
v  0.84 0.36 -2.02
v  -0.80 0.36 -2.02
v  -0.80 -0.29 -1.00
v  0.84 -0.29 -1.00
v  0.84 -0.29 -2.02
v  1.54 -0.20 -0.82
v  1.72 -0.20 -0.82
v  1.72 2.96 -0.61
v  1.54 2.96 -0.61
v  1.72 -0.19 -1.00
v  1.72 2.97 -0.79
v  1.45 2.89 -0.57
v  1.77 2.89 -0.57
v  1.61 3.39 -0.69
v  1.77 2.91 -0.88
v  1.54 -0.17 -1.48
v  1.72 -0.17 -1.48
v  1.72 2.98 -1.85
v  1.54 2.98 -1.85
v  1.72 -0.19 -1.66
v  1.72 2.96 -2.03
v  1.45 2.92 -1.80
v  1.77 2.92 -1.80
v  1.61 3.39 -2.01
v  1.77 2.88 -2.11


vn 1.00 0.00 0.00
vn 1.00 -0.00 0.00
vn -0.00 0.00 1.00
vn 0.00 1.00 -0.00
vn -0.00 0.71 0.71
vn 0.00 0.71 -0.71
vn 0.00 1.00 0.00
vn -0.00 1.00 -0.00
vn 0.00 0.41 0.91
vn 0.62 0.30 0.72
vn 0.73 0.26 0.64
vn 1.00 -0.03 0.01
vn 1.00 -0.00 -0.00
vn 0.00 -0.46 0.89
vn 0.62 -0.37 0.69
vn 0.73 -0.33 0.60
vn 1.00 -0.02 -0.02
vn 1.00 -0.02 -0.01
vn 0.02 1.00 -0.00
vn -0.01 1.00 -0.00
vn -0.04 1.00 -0.00
vn 0.02 -0.00 1.00
vn -0.01 -0.00 1.00
vn 0.02 0.00 1.00
vn -0.04 0.00 1.00
vn -0.04 -0.00 1.00
vn 1.00 0.00 -0.00
vn 0.00 0.43 0.90
vn 0.00 -0.43 0.90
vn -0.00 0.01 1.00
vn -0.00 0.40 0.92
vn 0.11 0.49 0.87
vn 0.01 0.02 1.00
vn 0.56 0.01 0.83
vn 0.58 0.40 0.71
vn 0.21 0.98 -0.00
vn 0.51 0.86 -0.00
vn -0.00 0.02 1.00
vn 0.76 0.01 0.65
vn 0.00 0.02 1.00
vn 0.00 0.79 -0.61
vn 0.17 0.78 -0.60
vn 0.49 0.69 -0.53
vn 0.00 -0.36 0.93
vn 0.00 0.97 0.24
vn 0.00 0.34 0.94
vn 1.00 -0.02 0.01
vn 0.00 0.97 -0.25
vn 0.00 0.91 -0.42
vn -0.00 0.42 0.91
vn 0.00 0.00 1.00
vn 0.00 -0.07 1.00
vn 0.00 0.24 0.97
vn 0.95 0.30 0.02
vn 0.00 0.12 0.99
vn 0.95 0.30 -0.04


vt 0.32 0.67 0.00
vt 0.32 0.68 0.00
vt 0.31 0.69 0.00
vt 0.29 0.69 0.00
vt 0.28 0.68 0.00
vt 0.28 0.67 0.00
vt 0.29 0.66 0.00
vt 0.31 0.66 0.00
vt 0.32 0.73 0.00
vt 0.32 0.71 0.00
vt 0.33 0.71 0.00
vt 0.33 0.73 0.00
vt 0.32 0.72 0.00
vt 0.33 0.72 0.00
vt 0.36 1.00 0.00
vt 0.43 1.00 0.00
vt 0.43 0.93 0.00
vt 0.36 0.93 0.00
vt 0.15 0.77 0.00
vt 0.15 0.75 0.00
vt 0.31 0.75 0.00
vt 0.31 0.77 0.00
vt 0.32 0.74 0.00
vt 0.32 0.76 0.00
vt 0.31 0.76 0.00
vt 0.31 0.74 0.00
vt 0.19 0.75 0.00
vt 0.26 0.75 0.00
vt 0.26 0.73 0.00
vt 0.19 0.73 0.00
vt 0.13 0.77 0.00
vt 0.13 0.75 0.00
vt 0.09 0.79 0.00
vt 0.19 0.79 0.00
vt 0.19 0.99 0.00
vt 0.09 0.99 0.00
vt 0.56 0.77 0.00
vt 0.56 0.85 0.00
vt 0.57 0.86 0.00
vt 0.57 0.78 0.00
vt 0.58 0.86 0.00
vt 0.58 0.79 0.00
vt 0.57 0.79 0.00
vt 0.56 0.84 0.00
vt 0.57 0.84 0.00
vt 0.58 0.81 0.00
vt 0.57 0.81 0.00
vt 0.57 0.80 0.00
vt 0.56 0.81 0.00
vt 0.57 0.82 0.00
vt 0.33 0.77 0.00
vt 0.33 0.76 0.00
vt 0.15 0.76 0.00
vt 0.22 0.77 0.00
vt 0.22 0.76 0.00
vt 0.39 0.78 0.00
vt 0.46 0.78 0.00
vt 0.46 0.85 0.00
vt 0.39 0.85 0.00
vt 0.43 0.95 0.00
vt 0.43 0.86 0.00
vt 0.46 0.73 0.00
vt 0.46 0.72 0.00
vt 0.47 0.72 0.00
vt 0.46 0.74 0.00
vt 0.46 0.75 0.00
vt 0.47 0.74 0.00




f 1/1/1 2/2/1 3/3/1 
f 3/3/1 4/4/2 5/5/1 
f 1/1/1 3/3/1 5/5/1 
f 5/5/1 6/6/1 7/7/1 
f 1/1/1 5/5/1 7/7/1 
f 8/8/2 1/1/1 7/7/1 

f 6/9/3 5/10/3 9/11/3 
f 9/11/3 10/12/3 6/9/3 

f 4/9/4 3/10/4 11/11/4 
f 11/11/4 12/12/4 4/9/4 

f 5/10/5 4/13/5 12/14/5 
f 12/14/5 9/11/5 5/10/5 
f 3/10/6 2/13/6 13/14/6 
f 13/14/6 11/11/6 3/10/6 

f 14/15/4 15/16/7 16/17/4 
f 16/17/4 17/18/8 14/15/4 

f 18/19/9 19/20/10 20/21/11 
f 20/21/11 21/22/9 18/19/9 
f 19/19/10 22/20/12 23/21/12 
f 23/21/12 20/22/11 19/19/10 

f 24/23/2 25/24/2 16/25/2 
f 16/25/13 15/26/13 24/23/13 

f 26/19/14 27/20/15 28/21/16 
f 28/21/16 29/22/14 26/19/14 
f 27/19/15 30/20/17 31/21/18 
f 31/21/18 28/22/16 27/19/15 
f 32/19/9 33/20/10 34/21/11 
f 34/21/11 35/22/9 32/19/9 
f 33/19/10 36/20/12 37/21/12 
f 37/21/12 34/22/11 33/19/10 

f 38/27/19 39/28/20 40/29/20 
f 40/29/20 41/30/19 38/27/19 
f 39/28/20 42/27/21 43/30/21 
f 43/30/21 40/29/20 39/28/20 

f 44/27/22 45/28/23 39/29/23 
f 39/29/23 38/30/24 44/27/22 
f 45/28/23 46/27/25 42/30/26 
f 42/30/26 39/29/23 45/28/23 

f 46/19/27 47/31/27 43/32/27 
f 43/32/27 42/20/27 46/19/27 

f 48/33/28 49/34/28 50/35/28 
f 50/35/28 51/36/28 48/33/28 

f 16/34/29 52/35/29 53/36/29 
f 53/36/29 17/33/29 16/34/29 

f 54/37/30 55/38/31 56/39/32 
f 56/39/32 57/40/33 54/37/30 

f 58/39/34 59/41/27 60/42/27 
f 60/42/27 61/43/35 58/39/34 

f 55/38/31 62/44/8 63/45/36 
f 63/45/36 56/39/32 55/38/31 
f 61/43/35 60/42/27 64/46/27 
f 64/46/27 65/47/37 61/43/35 
f 66/39/38 67/39/38 68/48/39 
f 68/48/39 69/48/40 66/39/38 

f 70/39/27 71/43/27 68/42/27 
f 68/42/27 67/41/27 70/39/27 

f 63/45/36 62/44/8 72/49/41 
f 72/49/41 73/50/42 63/45/36 
f 71/43/43 65/47/37 64/46/27 
f 64/46/27 68/42/39 71/43/43 
f 58/40/34 61/39/35 55/38/31 
f 55/38/31 54/37/30 58/40/34 
f 61/39/35 65/45/37 62/44/8 
f 62/44/8 55/38/31 61/39/35 
f 65/45/37 71/50/43 72/49/41 
f 72/49/41 62/44/8 65/45/37 
f 74/37/30 75/38/31 76/39/32 
f 76/39/32 77/40/33 74/37/30 

f 78/39/34 79/41/27 80/42/2 
f 80/42/2 81/43/35 78/39/34 

f 75/38/31 82/44/8 83/45/36 
f 83/45/36 76/39/32 75/38/31 
f 81/43/35 80/42/2 84/46/13 
f 84/46/13 85/47/37 81/43/35 
f 86/39/38 87/39/38 88/48/39 
f 88/48/39 89/48/40 86/39/38 

f 90/39/27 91/43/27 88/42/27 
f 88/42/27 87/41/27 90/39/27 

f 83/45/36 82/44/8 92/49/41 
f 92/49/41 93/50/42 83/45/36 
f 91/43/43 85/47/37 84/46/13 
f 84/46/13 88/42/39 91/43/43 
f 78/40/34 81/39/35 75/38/31 
f 75/38/31 74/37/30 78/40/34 
f 81/39/35 85/45/37 82/44/8 
f 82/44/8 75/38/31 81/39/35 
f 85/45/37 91/50/43 92/49/41 
f 92/49/41 82/44/8 85/45/37 

f 94/51/44 95/52/44 96/53/44 
f 96/53/44 97/19/44 94/51/44 

f 95/51/18 98/52/18 99/53/18 
f 99/53/18 96/19/18 95/51/18 

f 96/32/45 99/31/45 100/19/45 
f 100/19/45 97/20/45 96/32/45 

f 101/51/46 102/52/46 103/53/46 
f 103/53/46 104/19/46 101/51/46 

f 105/51/47 106/19/47 103/53/47 
f 103/53/47 102/52/47 105/51/47 

f 106/32/48 107/20/48 104/19/48 
f 104/19/48 103/31/48 106/32/48 

f 108/51/46 109/52/46 110/53/46 
f 110/53/46 111/19/46 108/51/46 

f 112/51/47 113/19/47 110/53/47 
f 110/53/47 109/52/47 112/51/47 

f 113/32/48 114/20/48 111/19/48 
f 111/19/48 110/31/48 113/32/48 

f 115/51/44 116/52/44 117/53/44 
f 117/53/44 118/19/44 115/51/44 

f 116/51/18 119/52/18 120/53/18 
f 120/53/18 117/19/18 116/51/18 

f 117/32/45 120/31/45 121/19/45 
f 121/19/45 118/20/45 117/32/45 

f 122/51/49 123/54/49 124/55/49 
f 124/55/49 125/52/49 122/51/49 

f 124/32/2 123/20/2 126/19/2 
f 126/19/2 127/31/2 124/32/2 

f 123/54/50 122/51/50 128/52/50 
f 128/52/50 126/55/50 123/54/50 

f 129/56/4 130/57/4 131/58/4 
f 131/58/4 132/59/4 129/56/4 

f 133/56/51 134/57/51 130/58/51 
f 130/58/51 129/59/51 133/56/51 

f 134/56/27 135/57/27 131/58/27 
f 131/58/27 130/59/27 134/56/27 

f 136/56/4 137/57/4 138/58/4 
f 138/58/4 139/59/4 136/56/4 

f 140/56/51 141/57/51 137/58/51 
f 137/58/51 136/59/51 140/56/51 

f 141/56/27 142/57/27 138/58/27 
f 138/58/27 137/59/27 141/56/27 

f 143/60/52 144/60/52 145/61/52 
f 145/61/52 146/61/52 143/60/52 

f 147/60/27 148/61/27 145/61/27 
f 145/61/27 144/60/27 147/60/27 

f 149/62/53 150/63/53 151/64/53 
f 150/65/54 152/66/54 151/67/54 

f 153/60/55 154/60/55 155/61/55 
f 155/61/55 156/61/55 153/60/55 

f 157/60/27 158/61/27 155/61/27 
f 155/61/27 154/60/27 157/60/27 

f 159/62/9 160/63/9 161/64/9 
f 160/65/56 162/66/56 161/67/56 


