






v  -1.19 0.10 0.17
v  1.42 0.10 0.17
v  1.42 0.10 -1.59
v  -1.19 0.10 -1.59
v  -1.66 2.69 0.28
v  -0.54 2.23 0.28
v  -0.54 1.95 -0.62
v  -1.66 2.42 -0.62
v  0.57 2.23 0.28
v  0.57 1.95 -0.62
v  1.68 2.69 0.28
v  1.68 2.42 -0.62
v  -0.54 2.23 -1.69
v  -1.66 2.69 -1.69
v  0.57 2.23 -1.69
v  1.68 2.69 -1.69
v  -2.05 2.90 -1.59
v  -1.59 2.92 -1.60
v  -1.59 2.88 -2.07
v  -2.05 2.85 -2.07
v  -1.80 0.01 -1.44
v  -1.52 0.02 -1.44
v  -1.52 -0.00 -1.72
v  -1.80 -0.02 -1.72
v  -1.40 1.32 -1.46
v  -1.40 2.32 -1.46
v  -1.02 1.10 -1.46
v  -1.02 2.21 -1.46
v  -0.64 2.10 -1.46
v  -0.64 1.32 -1.46
v  -1.40 1.32 -1.20
v  -1.02 1.10 -1.20
v  -1.40 2.32 -1.20
v  -1.02 2.21 -1.20
v  -0.64 1.32 -1.20
v  -0.64 2.10 -1.20
v  2.05 2.90 -1.59
v  2.05 2.85 -2.07
v  1.58 2.88 -2.07
v  1.58 2.92 -1.60
v  1.80 0.01 -1.44
v  1.52 0.02 -1.44
v  1.52 -0.00 -1.72
v  1.80 -0.02 -1.72
v  1.50 1.00 -0.71
v  1.16 1.00 -0.71
v  1.16 1.00 -0.37
v  1.50 1.00 -0.37
v  1.03 0.00 -0.24
v  1.63 0.00 -0.24
v  1.63 0.00 -0.84
v  1.03 0.00 -0.84
v  0.89 1.00 -1.37
v  0.55 1.00 -1.37
v  0.55 1.00 -1.03
v  0.89 1.00 -1.03
v  0.42 0.00 -0.90
v  1.02 0.00 -0.90
v  1.02 0.00 -1.50
v  0.42 0.00 -1.50
v  -1.57 0.83 0.87
v  -0.12 0.83 1.02
v  -0.04 0.83 0.24
v  -1.49 0.83 0.09
v  -1.57 0.00 0.87
v  -0.12 0.00 1.02
v  -0.04 0.00 0.24
v  -1.49 0.00 0.09
v  -1.10 0.68 1.39
v  -1.44 0.68 1.39
v  -1.44 0.68 1.73
v  -1.10 0.68 1.73
v  -1.57 -0.32 1.86
v  -0.97 -0.32 1.86
v  -0.97 -0.32 1.26
v  -1.57 -0.32 1.26
v  1.77 1.00 1.39
v  1.43 1.00 1.39
v  1.43 1.00 1.73
v  1.77 1.00 1.73
v  1.30 0.00 1.86
v  1.90 0.00 1.86
v  1.90 0.00 1.26
v  1.30 0.00 1.26
v  1.47 0.83 0.05
v  0.02 0.83 0.19
v  0.10 0.83 0.97
v  1.55 0.83 0.83
v  1.47 0.00 0.05
v  0.02 0.00 0.19
v  0.10 0.00 0.97
v  1.55 0.00 0.83
v  2.05 2.90 0.14
v  1.58 2.92 0.14
v  1.58 2.88 0.62
v  2.05 2.85 0.61
v  1.80 0.01 -0.02
v  1.52 0.02 -0.01
v  1.52 -0.00 0.27
v  1.80 -0.02 0.27
v  1.45 1.21 -0.88
v  1.07 0.99 -0.88
v  1.45 2.29 -0.88
v  0.69 1.21 -0.88
v  0.69 2.00 -0.88
v  1.07 2.14 -0.88
v  1.45 1.21 -0.63
v  1.45 2.29 -0.63
v  1.07 0.99 -0.63
v  1.07 2.14 -0.63
v  0.69 1.21 -0.63
v  0.69 2.00 -0.63
v  -2.05 2.90 0.14
v  -2.05 2.85 0.61
v  -1.59 2.88 0.62
v  -1.59 2.92 0.14
v  -1.80 0.01 -0.02
v  -1.52 0.02 -0.01
v  -1.52 -0.00 0.27
v  -1.80 -0.02 0.27


vn 0.00 1.00 -0.00
vn 0.37 0.89 -0.27
vn 0.20 0.94 -0.28
vn 0.19 0.98 -0.02
vn 0.39 0.92 -0.02
vn -0.20 0.94 -0.28
vn -0.19 0.98 -0.02
vn -0.37 0.89 -0.27
vn -0.39 0.92 -0.02
vn 0.20 0.95 0.24
vn 0.38 0.90 0.23
vn -0.20 0.95 0.24
vn -0.38 0.90 0.23
vn -0.05 0.99 -0.09
vn 0.00 0.05 1.00
vn 1.00 0.02 -0.00
vn 0.00 -0.12 -0.99
vn -1.00 -0.09 0.01
vn -0.00 0.00 -1.00
vn 0.00 0.00 -1.00
vn -0.00 -0.00 1.00
vn 0.00 -0.00 1.00
vn -0.51 -0.86 -0.00
vn -0.00 -1.00 -0.00
vn 0.00 -1.00 -0.00
vn 0.51 -0.86 -0.00
vn 1.00 0.00 -0.00
vn -1.00 0.00 -0.00
vn 0.05 0.99 -0.09
vn -0.00 0.05 1.00
vn -1.00 0.02 -0.00
vn -0.00 -0.12 -0.99
vn 1.00 -0.09 0.01
vn 0.00 0.13 0.99
vn 0.99 0.13 -0.00
vn 0.00 0.13 -0.99
vn -0.99 0.13 -0.00
vn -0.10 0.00 0.99
vn 0.99 0.00 0.10
vn 0.10 0.00 -0.99
vn -0.99 0.00 -0.10
vn -0.10 0.00 -1.00
vn -1.00 0.00 0.10
vn 0.10 0.00 1.00
vn 1.00 0.00 -0.10
vn 0.05 0.99 0.09
vn -0.00 0.05 -1.00
vn -1.00 0.02 0.00
vn -0.00 -0.12 0.99
vn 1.00 -0.09 -0.01
vn -0.05 0.99 0.09
vn 0.00 0.05 -1.00
vn 1.00 0.02 0.00
vn 0.00 -0.12 0.99
vn -1.00 -0.09 -0.01


vt 0.50 0.93 0.00
vt 0.35 0.93 0.00
vt 0.35 0.85 0.00
vt 0.50 0.85 0.00
vt 0.59 0.78 0.00
vt 0.64 0.78 0.00
vt 0.64 0.81 0.00
vt 0.59 0.81 0.00
vt 0.68 0.78 0.00
vt 0.68 0.81 0.00
vt 0.72 0.78 0.00
vt 0.72 0.81 0.00
vt 0.64 0.84 0.00
vt 0.59 0.84 0.00
vt 0.68 0.84 0.00
vt 0.72 0.84 0.00
vt 0.13 0.77 0.00
vt 0.13 0.75 0.00
vt 0.15 0.75 0.00
vt 0.15 0.77 0.00
vt 0.33 0.75 0.00
vt 0.33 0.76 0.00
vt 0.18 0.76 0.00
vt 0.18 0.75 0.00
vt 0.58 0.79 0.00
vt 0.58 0.85 0.00
vt 0.56 0.78 0.00
vt 0.56 0.84 0.00
vt 0.58 0.83 0.00
vt 0.57 0.84 0.00
vt 0.57 0.83 0.00
vt 0.58 0.84 0.00
vt 0.57 0.82 0.00
vt 0.58 0.82 0.00
vt 0.55 0.77 0.00
vt 0.55 0.76 0.00
vt 0.56 0.76 0.00
vt 0.56 0.77 0.00
vt 0.52 0.77 0.00
vt 0.52 0.73 0.00
vt 0.55 0.73 0.00
vt 0.55 0.74 0.00
vt 0.56 0.74 0.00
vt 0.56 0.73 0.00
vt 0.48 0.73 0.00
vt 0.48 0.68 0.00
vt 0.56 0.68 0.00
vt 0.42 0.77 0.00
vt 0.42 0.68 0.00
vt 0.47 0.68 0.00
vt 0.47 0.77 0.00
vt 0.39 0.85 0.00
vt 0.39 0.78 0.00
vt 0.46 0.78 0.00
vt 0.46 0.85 0.00
vt 0.59 0.77 0.00
vt 0.57 0.77 0.00
vt 0.57 0.73 0.00
vt 0.59 0.73 0.00




f 1/1/1 2/2/1 3/3/1 
f 3/3/1 4/4/1 1/1/1 
f 5/5/2 6/6/3 7/7/4 
f 7/7/4 8/8/5 5/5/2 
f 6/6/3 9/9/6 10/10/7 
f 10/10/7 7/7/4 6/6/3 
f 9/9/6 11/11/8 12/12/9 
f 12/12/9 10/10/7 9/9/6 
f 8/8/5 7/7/4 13/13/10 
f 13/13/10 14/14/11 8/8/5 
f 7/7/4 10/10/7 15/15/12 
f 15/15/12 13/13/10 7/7/4 
f 10/10/7 12/12/9 16/16/13 
f 16/16/13 15/15/12 10/10/7 

f 17/17/14 18/18/14 19/19/14 
f 19/19/14 20/20/14 17/17/14 

f 21/21/15 22/22/15 18/23/15 
f 18/23/15 17/24/15 21/21/15 

f 22/21/16 23/22/16 19/23/16 
f 19/23/16 18/24/16 22/21/16 

f 23/21/17 24/22/17 20/23/17 
f 20/23/17 19/24/17 23/21/17 

f 24/21/18 21/22/18 17/23/18 
f 17/23/18 20/24/18 24/21/18 

f 25/25/19 26/26/19 27/27/19 
f 27/27/19 28/28/19 29/29/19 
f 29/29/19 30/25/20 27/27/19 

f 31/25/21 32/27/22 33/26/21 
f 32/27/22 34/28/22 33/26/21 

f 25/30/23 27/31/24 32/29/25 
f 32/29/25 31/32/23 25/30/23 
f 27/31/24 30/33/26 35/34/26 
f 35/34/26 32/29/25 27/31/24 

f 30/30/27 29/33/27 36/34/27 
f 36/34/27 35/32/27 30/30/27 

f 26/30/28 25/33/28 31/34/28 
f 31/34/28 33/32/28 26/30/28 

f 32/27/22 35/25/22 36/29/22 
f 36/29/22 34/28/22 32/27/22 

f 27/27/19 26/26/19 28/28/19 

f 37/17/29 38/20/29 39/19/29 
f 39/19/29 40/18/29 37/17/29 

f 41/21/30 37/24/30 40/23/30 
f 40/23/30 42/22/30 41/21/30 

f 42/21/31 40/24/31 39/23/31 
f 39/23/31 43/22/31 42/21/31 

f 43/21/32 39/24/32 38/23/32 
f 38/23/32 44/22/32 43/21/32 

f 44/21/33 38/24/33 37/23/33 
f 37/23/33 41/22/33 44/21/33 

f 45/35/1 46/36/1 47/37/1 
f 47/37/1 48/38/1 45/35/1 

f 48/35/34 47/39/34 49/40/34 
f 49/40/34 50/41/34 48/35/34 

f 45/35/35 48/39/35 50/40/35 
f 50/40/35 51/41/35 45/35/35 

f 46/35/36 45/39/36 51/40/36 
f 51/40/36 52/41/36 46/35/36 

f 47/35/37 46/39/37 52/40/37 
f 52/40/37 49/41/37 47/35/37 

f 53/36/1 54/42/1 55/43/1 
f 55/43/1 56/37/1 53/36/1 

f 56/35/34 55/39/34 57/40/34 
f 57/40/34 58/41/34 56/35/34 

f 53/35/35 56/39/35 58/40/35 
f 58/40/35 59/41/35 53/35/35 

f 54/35/36 53/39/36 59/40/36 
f 59/40/36 60/41/36 54/35/36 

f 55/35/37 54/39/37 60/40/37 
f 60/40/37 57/41/37 55/35/37 

f 61/44/1 62/45/1 63/46/1 
f 63/46/1 64/47/1 61/44/1 

f 65/48/38 66/49/38 62/50/38 
f 62/50/38 61/51/38 65/48/38 

f 66/52/39 67/53/39 63/54/39 
f 63/54/39 62/55/39 66/52/39 

f 67/48/40 68/49/40 64/50/40 
f 64/50/40 63/51/40 67/48/40 

f 68/52/41 65/53/41 61/54/41 
f 61/54/41 64/55/41 68/52/41 

f 69/42/1 70/41/1 71/44/1 
f 71/44/1 72/43/1 69/42/1 

f 72/56/34 71/57/34 73/58/34 
f 73/58/34 74/59/34 72/56/34 

f 69/56/35 72/57/35 74/58/35 
f 74/58/35 75/59/35 69/56/35 

f 70/56/36 69/57/36 75/58/36 
f 75/58/36 76/59/36 70/56/36 

f 71/56/37 70/57/37 76/58/37 
f 76/58/37 73/59/37 71/56/37 

f 77/36/1 78/42/1 79/43/1 
f 79/43/1 80/37/1 77/36/1 

f 80/35/34 79/39/34 81/40/34 
f 81/40/34 82/41/34 80/35/34 

f 77/35/35 80/39/35 82/40/35 
f 82/40/35 83/41/35 77/35/35 

f 78/35/36 77/39/36 83/40/36 
f 83/40/36 84/41/36 78/35/36 

f 79/35/37 78/39/37 84/40/37 
f 84/40/37 81/41/37 79/35/37 

f 85/44/1 86/45/1 87/46/1 
f 87/46/1 88/47/1 85/44/1 

f 89/48/42 90/49/42 86/50/42 
f 86/50/42 85/51/42 89/48/42 

f 90/52/43 91/53/43 87/54/43 
f 87/54/43 86/55/43 90/52/43 

f 91/48/44 92/49/44 88/50/44 
f 88/50/44 87/51/44 91/48/44 

f 92/52/45 89/53/45 85/54/45 
f 85/54/45 88/55/45 92/52/45 

f 93/17/46 94/18/46 95/19/46 
f 95/19/46 96/20/46 93/17/46 

f 97/21/47 98/22/47 94/23/47 
f 94/23/47 93/24/47 97/21/47 

f 98/21/48 99/22/48 95/23/48 
f 95/23/48 94/24/48 98/21/48 

f 99/21/49 100/22/49 96/23/49 
f 96/23/49 95/24/49 99/21/49 

f 100/21/50 97/22/50 93/23/50 
f 93/23/50 96/24/50 100/21/50 

f 101/25/19 102/27/20 103/26/20 
f 102/27/20 104/25/19 105/29/20 
f 105/29/20 106/28/20 102/27/20 

f 107/25/22 108/26/22 109/27/21 
f 109/27/21 108/26/22 110/28/21 

f 101/30/26 107/32/26 109/29/25 
f 109/29/25 102/31/24 101/30/26 
f 102/31/24 109/29/25 111/34/23 
f 111/34/23 104/33/23 102/31/24 

f 104/30/28 111/32/28 112/34/28 
f 112/34/28 105/33/28 104/30/28 

f 103/30/27 108/32/27 107/34/27 
f 107/34/27 101/33/27 103/30/27 

f 109/27/21 110/28/21 112/29/21 
f 112/29/21 111/25/21 109/27/21 

f 102/27/20 106/28/20 103/26/20 

f 113/17/51 114/20/51 115/19/51 
f 115/19/51 116/18/51 113/17/51 

f 117/21/52 113/24/52 116/23/52 
f 116/23/52 118/22/52 117/21/52 

f 118/21/53 116/24/53 115/23/53 
f 115/23/53 119/22/53 118/21/53 

f 119/21/54 115/24/54 114/23/54 
f 114/23/54 120/22/54 119/21/54 

f 120/21/55 114/24/55 113/23/55 
f 113/23/55 117/22/55 120/21/55 


