






v  -1.792 0.102 0.717
v  0.029 0.102 0.717
v  0.029 0.102 -1.496
v  -1.788 0.102 -1.496
v  0.111 -0.060 0.967
v  0.289 -0.039 0.956
v  0.375 2.700 -0.265
v  0.025 2.691 -0.261
v  0.289 -0.078 0.780
v  0.374 2.566 -0.585
v  0.029 -0.000 0.871
v  0.029 -0.000 -1.649
v  0.111 -0.139 -1.575
v  0.289 -0.117 -1.565
v  0.375 2.548 -0.190
v  0.025 2.539 -0.195
v  0.289 -0.004 -1.706
v  0.374 2.715 -0.495
v  -1.864 -0.060 0.967
v  -1.686 -0.039 0.956
v  -1.601 2.700 -0.265
v  -1.951 2.691 -0.261
v  -1.686 -0.078 0.780
v  -1.601 2.566 -0.585
v  -2.070 2.756 -0.166
v  -0.713 2.729 -0.196
v  -0.713 2.729 -0.454
v  -2.070 2.756 -0.514
v  0.645 2.781 -0.139
v  0.645 2.781 -0.519
v  -2.070 2.436 -0.166
v  -0.713 2.492 -0.196
v  0.645 2.432 -0.139
v  0.645 2.432 -0.519
v  -1.740 -0.000 0.871
v  0.149 -0.000 0.871
v  0.149 2.677 -0.389
v  -1.740 2.677 -0.389
v  0.029 2.413 -0.389
v  -1.784 2.413 -0.389
v  -0.052 -0.449 1.885
v  -0.052 1.351 1.885
v  -1.852 1.351 1.885
v  -1.852 -0.449 1.885
v  -0.052 -0.449 0.985
v  -0.052 1.351 0.985
v  -1.852 1.351 0.985
v  0.716 0.092 0.406
v  1.965 0.092 0.406
v  1.965 0.092 -1.729
v  0.716 0.092 -1.729
v  0.716 -0.230 0.406
v  1.965 -0.230 0.406
v  1.965 -0.230 -1.729
v  1.759 0.043 1.197
v  1.759 0.724 0.089
v  1.759 0.894 0.194
v  1.759 0.213 1.301
v  1.559 0.894 0.194
v  1.559 0.213 1.301
v  1.559 0.043 1.197
v  1.864 0.519 -0.049
v  1.864 0.746 -0.418
v  1.864 1.356 -0.043
v  1.864 1.129 0.326
v  1.423 1.356 -0.043
v  1.423 1.129 0.326
v  1.423 0.519 -0.049
v  0.201 0.035 0.933
v  0.721 0.021 1.061
v  0.762 0.567 0.949
v  0.243 0.580 0.821
v  0.770 -0.024 0.857
v  0.811 0.521 0.745
v  0.292 0.534 0.617
v  0.717 0.148 0.120
v  0.630 0.357 0.773
v  0.616 0.162 0.813
v  0.712 0.083 0.133
v  0.653 0.150 0.104
v  0.436 0.362 0.725
v  1.510 1.124 -0.703
v  2.045 1.124 -0.703
v  2.045 1.124 -1.261
v  1.510 1.124 -1.261
v  1.510 0.909 -0.703
v  2.045 0.909 -0.703
v  2.045 0.909 -1.261
v  1.814 0.258 -1.015
v  1.881 0.942 -1.082
v  1.881 0.942 -0.882
v  1.814 0.258 -0.949
v  1.681 0.942 -0.882
v  1.748 0.258 -0.949
v  1.299 0.541 -0.152
v  1.725 0.541 -0.007
v  2.003 0.541 -0.822
v  1.577 0.541 -0.967
v  1.299 0.091 -0.152
v  1.725 0.091 -0.007
v  2.003 0.091 -0.822
v  0.365 0.458 -2.144
v  -0.497 0.458 -2.144
v  -0.497 0.458 -1.694
v  0.365 0.458 -1.694
v  0.365 0.008 -2.144
v  0.365 0.008 -1.694
v  -0.497 0.008 -1.694
v  -0.015 0.939 -2.187
v  -0.858 0.939 -2.006
v  -0.763 0.939 -1.566
v  0.079 0.939 -1.747
v  -0.015 0.489 -2.187
v  0.079 0.489 -1.747
v  -0.763 0.489 -1.566
v  0.884 0.281 0.294
v  1.079 0.281 0.294
v  1.079 0.281 0.089
v  0.884 0.281 0.089
v  0.884 0.086 0.294
v  1.079 0.086 0.294
v  1.079 0.086 0.089
v  0.684 0.283 -0.193
v  0.879 0.283 -0.193
v  0.879 0.283 -0.399
v  0.684 0.283 -0.399
v  0.684 0.088 -0.193
v  0.879 0.088 -0.193
v  0.879 0.088 -0.399
v  0.995 0.280 -1.170
v  1.190 0.280 -1.170
v  1.190 0.280 -1.376
v  0.995 0.280 -1.376
v  0.995 0.086 -1.170
v  1.190 0.086 -1.170
v  1.190 0.086 -1.376
v  1.442 0.541 -1.066
v  1.892 0.541 -1.066
v  1.892 0.541 -1.927
v  1.442 0.541 -1.927
v  1.442 0.091 -1.066
v  1.892 0.091 -1.066
v  1.892 0.091 -1.927


vn 0.000 1.000 -0.000
vn 0.000 1.000 0.000
vn -0.000 1.000 -0.000
vn 0.003 0.407 0.913
vn 0.624 0.302 0.721
vn 0.726 0.261 0.636
vn 0.001 0.407 0.913
vn 1.000 -0.029 0.006
vn 1.000 -0.026 0.011
vn 1.000 -0.000 0.000
vn 1.000 -0.000 -0.000
vn 0.003 -0.458 0.889
vn 0.624 -0.374 0.686
vn 0.726 -0.333 0.602
vn 0.001 -0.458 0.889
vn 1.000 -0.023 -0.019
vn 1.000 -0.025 -0.014
vn 0.020 1.000 -0.000
vn -0.009 1.000 -0.000
vn -0.038 0.999 -0.000
vn 0.022 -0.000 1.000
vn -0.010 -0.000 1.000
vn 0.022 0.000 1.000
vn -0.042 0.000 0.999
vn -0.042 -0.000 0.999
vn 1.000 0.000 -0.000
vn 0.000 0.426 0.905
vn 0.000 -0.432 0.902
vn -0.000 -0.000 1.000
vn -0.000 0.000 1.000
vn 0.000 0.000 1.000
vn -0.000 0.852 0.524
vn -0.000 -0.524 0.852
vn 0.000 0.852 0.524
vn 0.000 -0.524 0.852
vn -0.229 0.213 0.950
vn 0.971 -0.024 0.239
vn 0.074 0.977 -0.201
vn 0.988 -0.045 0.146
vn 0.096 0.951 -0.292
vn 0.000 -0.000 1.000
vn 0.995 -0.097 -0.000
vn 0.995 -0.097 0.000
vn 0.000 -0.097 0.995
vn -0.323 0.000 0.946
vn 0.946 0.000 0.323
vn 0.978 0.000 -0.210
vn 0.210 0.000 0.978


vt 0.355 0.997 0.000
vt 0.426 0.997 0.000
vt 0.426 0.926 0.000
vt 0.355 0.926 0.000
vt 0.150 0.773 0.000
vt 0.150 0.754 0.000
vt 0.309 0.754 0.000
vt 0.309 0.773 0.000
vt 0.315 0.737 0.000
vt 0.315 0.765 0.000
vt 0.312 0.763 0.000
vt 0.312 0.739 0.000
vt 0.186 0.749 0.000
vt 0.258 0.749 0.000
vt 0.258 0.733 0.000
vt 0.186 0.733 0.000
vt 0.150 0.772 0.000
vt 0.129 0.772 0.000
vt 0.129 0.753 0.000
vt 0.150 0.753 0.000
vt 0.087 0.792 0.000
vt 0.188 0.792 0.000
vt 0.188 0.986 0.000
vt 0.087 0.986 0.000
vt 0.616 0.933 0.000
vt 0.616 0.873 0.000
vt 0.676 0.873 0.000
vt 0.676 0.933 0.000
vt 0.676 0.966 0.000
vt 0.616 0.966 0.000
vt 0.616 0.936 0.000
vt 0.676 0.936 0.000
vt 0.676 0.903 0.000
vt 0.616 0.903 0.000
vt 0.423 0.685 0.000
vt 0.474 0.685 0.000
vt 0.474 0.769 0.000
vt 0.423 0.769 0.000
vt 0.423 0.752 0.000
vt 0.474 0.752 0.000
vt 0.460 0.769 0.000
vt 0.460 0.685 0.000
vt 0.396 0.927 0.000
vt 0.432 0.927 0.000
vt 0.432 0.923 0.000
vt 0.396 0.923 0.000
vt 0.443 0.924 0.000
vt 0.443 0.926 0.000
vt 0.446 0.926 0.000
vt 0.446 0.924 0.000
vt 0.504 0.810 0.000
vt 0.504 0.777 0.000
vt 0.464 0.777 0.000
vt 0.464 0.810 0.000
vt 0.470 0.842 0.000
vt 0.492 0.842 0.000
vt 0.492 0.818 0.000
vt 0.470 0.818 0.000
vt 0.504 0.776 0.000
vt 0.464 0.776 0.000
vt 0.401 0.752 0.000
vt 0.401 0.743 0.000
vt 0.410 0.743 0.000
vt 0.410 0.752 0.000
vt 0.411 0.693 0.000
vt 0.403 0.693 0.000
vt 0.403 0.690 0.000
vt 0.411 0.690 0.000
vt 0.458 0.746 0.000
vt 0.459 0.764 0.000
vt 0.454 0.764 0.000
vt 0.456 0.746 0.000
vt 0.457 0.746 0.000
vt 0.616 0.888 0.000
vt 0.645 0.873 0.000
vt 0.645 0.888 0.000
vt 0.661 0.951 0.000
vt 0.661 0.936 0.000
vt 0.676 0.951 0.000
vt 0.459 0.801 0.000
vt 0.460 0.801 0.000
vt 0.460 0.802 0.000
vt 0.459 0.802 0.000




f 1/1/1 2/2/2 3/3/1 
f 3/3/1 4/4/3 1/1/1 

f 5/5/4 6/6/5 7/7/6 
f 7/7/6 8/8/7 5/5/4 
f 6/5/5 9/6/8 10/7/9 
f 10/7/9 7/8/6 6/5/5 

f 11/9/10 12/10/10 3/11/10 
f 3/11/11 2/12/11 11/9/11 

f 13/5/12 14/6/13 15/7/14 
f 15/7/14 16/8/15 13/5/12 
f 14/5/13 17/6/16 18/7/17 
f 18/7/17 15/8/14 14/5/13 
f 19/5/4 20/6/5 21/7/6 
f 21/7/6 22/8/7 19/5/4 
f 20/5/5 23/6/8 24/7/9 
f 24/7/9 21/8/6 20/5/5 

f 25/13/18 26/14/19 27/15/19 
f 27/15/19 28/16/18 25/13/18 
f 26/14/19 29/13/20 30/16/20 
f 30/16/20 27/15/19 26/14/19 

f 31/13/21 32/14/22 26/15/22 
f 26/15/22 25/16/23 31/13/21 
f 32/14/22 33/13/24 29/16/25 
f 29/16/25 26/15/22 32/14/22 

f 33/17/26 34/18/26 30/19/26 
f 30/19/26 29/20/26 33/17/26 

f 35/21/27 36/22/27 37/23/27 
f 37/23/27 38/24/27 35/21/27 

f 3/22/28 39/23/28 40/24/28 
f 40/24/28 4/21/28 3/22/28 

f 41/25/29 42/26/29 43/27/29 
f 43/27/29 44/28/30 41/25/29 

f 45/29/10 46/30/10 42/31/10 
f 42/31/10 41/32/10 45/29/10 

f 46/33/1 47/34/1 43/26/1 
f 43/26/1 42/27/1 46/33/1 

f 48/35/3 49/36/3 50/37/3 
f 50/37/3 51/38/3 48/35/3 

f 52/39/31 53/40/31 49/37/31 
f 49/37/31 48/38/31 52/39/31 

f 53/41/26 54/42/26 50/36/26 
f 50/36/26 49/37/26 53/41/26 

f 55/43/10 56/44/10 57/45/10 
f 57/45/10 58/46/10 55/43/10 

f 57/45/32 59/44/32 60/43/32 
f 60/43/32 58/46/32 57/45/32 

f 58/47/33 60/48/33 61/49/33 
f 61/49/33 55/50/33 58/47/33 

f 62/51/10 63/52/10 64/53/10 
f 64/53/10 65/54/10 62/51/10 

f 64/55/32 66/56/34 67/57/32 
f 67/57/32 65/58/32 64/55/32 

f 65/51/33 67/59/33 68/60/33 
f 68/60/33 62/54/35 65/51/33 

f 69/61/36 70/62/36 71/63/36 
f 71/63/36 72/64/36 69/61/36 

f 73/65/37 74/66/37 71/67/37 
f 71/67/37 70/68/37 73/65/37 

f 74/65/38 75/66/38 72/67/38 
f 72/67/38 71/68/38 74/65/38 

f 76/69/39 77/70/39 78/71/39 
f 78/71/39 79/72/39 76/69/39 

f 77/71/40 76/72/40 80/69/40 
f 80/69/40 81/70/40 77/71/40 

f 82/61/3 83/62/1 84/63/3 
f 84/63/3 85/64/3 82/61/3 

f 86/65/41 87/66/41 83/67/41 
f 83/67/41 82/68/41 86/65/41 

f 87/67/26 88/68/26 84/65/26 
f 84/65/26 83/66/26 87/67/26 

f 89/72/42 90/71/43 91/70/42 
f 91/70/42 92/73/42 89/72/42 

f 92/72/44 91/71/44 93/70/44 
f 93/70/44 94/73/44 92/72/44 

f 95/74/1 96/26/1 97/75/1 
f 97/75/1 98/76/1 95/74/1 

f 99/77/45 100/78/45 96/32/45 
f 96/32/45 95/79/45 99/77/45 

f 100/76/46 101/74/46 97/26/46 
f 97/26/46 96/75/46 100/76/46 

f 102/74/1 103/76/1 104/75/1 
f 104/75/1 105/26/1 102/74/1 

f 106/77/26 102/79/26 105/32/26 
f 105/32/26 107/78/26 106/77/26 

f 107/76/31 105/75/31 104/26/31 
f 104/26/31 108/74/31 107/76/31 

f 109/74/1 110/76/1 111/75/1 
f 111/75/1 112/26/1 109/74/1 

f 113/77/47 109/79/47 112/32/47 
f 112/32/47 114/78/47 113/77/47 

f 114/76/48 112/75/48 111/26/48 
f 111/26/48 115/74/48 114/76/48 

f 116/80/1 117/81/1 118/82/1 
f 118/82/1 119/83/1 116/80/1 

f 120/80/31 121/81/31 117/82/31 
f 117/82/31 116/83/31 120/80/31 

f 121/80/26 122/81/26 118/82/26 
f 118/82/26 117/83/26 121/80/26 

f 123/80/1 124/81/1 125/82/1 
f 125/82/1 126/83/1 123/80/1 

f 127/80/31 128/81/31 124/82/31 
f 124/82/31 123/83/31 127/80/31 

f 128/80/26 129/81/26 125/82/26 
f 125/82/26 124/83/26 128/80/26 

f 130/80/1 131/81/1 132/82/1 
f 132/82/1 133/83/1 130/80/1 

f 134/80/31 135/81/31 131/82/31 
f 131/82/31 130/83/31 134/80/31 

f 135/80/26 136/81/26 132/82/26 
f 132/82/26 131/83/26 135/80/26 

f 137/74/1 138/26/1 139/75/1 
f 139/75/1 140/76/1 137/74/1 

f 141/77/31 142/78/31 138/32/31 
f 138/32/31 137/79/31 141/77/31 

f 142/76/26 143/74/26 139/26/26 
f 139/26/26 138/75/26 142/76/26 


