






v  -1.00 4.00 -1.00
v  1.00 4.00 1.00
v  -1.00 4.00 1.00
v  2.00 4.00 1.00
v  2.00 4.00 -1.00
v  1.00 4.00 -1.00
v  -1.00 4.00 -2.00
v  1.00 4.00 -2.00
v  2.00 0.00 -1.00
v  2.00 4.00 -1.00
v  1.00 0.00 -1.00
v  1.00 4.00 -1.00
v  -1.00 0.00 -2.00
v  1.00 0.00 -2.00
v  -1.00 4.00 -2.00
v  1.00 4.00 -2.00
v  2.00 0.00 1.00
v  -1.00 0.00 1.00
v  -1.00 4.00 1.00
v  2.00 4.00 1.00
v  -1.00 0.00 1.00
v  -1.00 4.00 1.00
v  -1.00 0.00 -2.00
v  -1.00 4.00 -2.00
v  1.00 0.00 -1.00
v  1.00 4.00 -1.00
v  1.00 0.00 -2.00
v  1.00 4.00 -2.00
v  2.00 0.00 1.00
v  2.00 4.00 1.00
v  2.00 0.00 -1.00
v  2.00 4.00 -1.00


vn 0.00 1.00 -0.00
vn 0.00 1.00 -0.00
vn 0.00 1.00 -0.00
vn 0.00 1.00 -0.00
vn 0.00 1.00 -0.00
vn 0.00 1.00 -0.00
vn 0.00 1.00 -0.00
vn 0.00 1.00 -0.00
vn 0.00 1.00 -0.00
vn 0.00 1.00 -0.00
vn 0.00 1.00 -0.00
vn 0.00 1.00 -0.00
vn 0.00 1.00 -0.00
vn 0.00 1.00 -0.00
vn 0.00 1.00 -0.00
vn 0.00 1.00 -0.00
vn 0.00 1.00 -0.00
vn 0.00 1.00 -0.00
vn -0.00 0.00 -1.00
vn -0.00 0.00 -1.00
vn -0.00 0.00 -1.00
vn -0.00 0.00 -1.00
vn -0.00 0.00 -1.00
vn -0.00 0.00 -1.00
vn 0.00 0.00 -1.00
vn 0.00 0.00 -1.00
vn 0.00 0.00 -1.00
vn 0.00 0.00 -1.00
vn 0.00 0.00 -1.00
vn 0.00 0.00 -1.00
vn -0.00 0.00 1.00
vn -0.00 0.00 1.00
vn -0.00 0.00 1.00
vn -0.00 0.00 1.00
vn -0.00 0.00 1.00
vn -0.00 0.00 1.00
vn -1.00 0.00 -0.00
vn -1.00 0.00 -0.00
vn -1.00 0.00 -0.00
vn -1.00 0.00 -0.00
vn -1.00 0.00 -0.00
vn -1.00 0.00 -0.00
vn 1.00 -0.00 0.00
vn 1.00 0.00 0.00
vn 1.00 -0.00 0.00
vn 1.00 -0.00 0.00
vn 1.00 -0.00 0.00
vn 1.00 -0.00 0.00
vn 1.00 0.00 -0.00
vn 1.00 0.00 -0.00
vn 1.00 0.00 -0.00
vn 1.00 0.00 -0.00
vn 1.00 0.00 -0.00
vn 1.00 0.00 -0.00


vt 0.00 0.25 0.00
vt 1.00 0.25 0.00
vt 1.00 0.75 0.00
vt 0.00 0.75 0.00
vt 0.00 0.00 0.00
vt 1.00 0.00 0.00
vt 1.00 1.00 0.00
vt 0.00 1.00 0.00
vt 0.25 0.00 0.00
vt 0.25 1.00 0.00
vt 0.75 0.00 0.00
vt 0.75 1.00 0.00



f 2/1/1 6/2/2 1/3/3 
f 1/3/4 3/4/5 2/1/6 
f 6/2/7 2/1/8 4/5/9 
f 4/5/10 5/6/11 6/2/12 
f 6/3/13 8/7/14 7/8/15 
f 7/8/16 1/4/17 6/3/18 
f 11/9/19 12/10/20 10/8/21 
f 10/8/22 9/5/23 11/9/24 
f 14/5/25 13/6/26 15/7/27 
f 15/7/28 16/8/29 14/5/30 
f 17/9/31 20/10/32 19/8/33 
f 19/8/34 18/5/35 17/9/36 
f 21/9/37 22/10/38 24/8/39 
f 24/8/40 23/5/41 21/9/42 
f 25/11/43 27/6/44 28/7/45 
f 28/7/46 26/12/47 25/11/48 
f 29/5/49 31/6/50 32/7/51 
f 32/7/52 30/8/53 29/5/54 


