






v  -1.10 0.19 -1.06
v  -1.10 0.19 1.12
v  1.08 0.19 1.12
v  1.08 0.19 -1.06
v  -1.66 0.00 1.67
v  1.63 0.00 1.67
v  1.63 1.17 1.67
v  -1.66 1.17 1.67
v  1.63 0.00 -1.61
v  1.63 1.17 -1.61
v  -1.66 1.17 -1.61
v  -1.10 1.17 1.12
v  -1.10 1.17 -1.06
v  1.08 1.17 1.12
v  1.08 1.17 -1.06
v  -1.38 1.10 0.73
v  -1.36 3.89 -0.19
v  -1.76 3.92 -0.19
v  -1.54 1.08 0.75
v  -1.39 1.06 0.58
v  -1.38 3.73 -0.57
v  -1.78 3.76 -0.56
v  -1.20 1.09 -0.43
v  -1.01 3.78 0.75
v  -1.41 3.81 0.77
v  -1.36 1.07 -0.43
v  -1.21 1.16 -0.57
v  -1.03 3.91 0.37
v  -1.43 3.94 0.39
v  1.93 3.37 0.08
v  1.93 3.53 -0.08
v  1.93 3.69 0.09
v  1.93 3.53 0.25
v  -1.92 3.69 0.09
v  -1.92 3.53 0.25
v  -1.92 3.53 -0.08
v  1.32 1.10 0.73
v  1.36 3.89 -0.19
v  0.96 3.92 -0.19
v  1.16 1.08 0.75
v  1.31 1.06 0.58
v  1.35 3.73 -0.57
v  0.94 3.76 -0.56
v  1.50 1.09 -0.43
v  1.71 3.78 0.75
v  1.31 3.81 0.77
v  1.35 1.07 -0.43
v  1.50 1.16 -0.57
v  1.69 3.91 0.37
v  1.29 3.94 0.39


vn 0.00 1.00 -0.00
vn 0.00 0.00 1.00
vn 1.00 0.00 -0.00
vn 0.70 0.22 0.68
vn 0.03 0.31 0.95
vn 0.05 0.32 0.95
vn 1.00 -0.02 -0.03
vn 1.00 -0.02 -0.04
vn 0.07 0.91 -0.40
vn 0.69 -0.33 0.65
vn 0.71 -0.33 0.63
vn 0.03 -0.40 0.91
vn 0.05 -0.40 0.91
vn 1.00 -0.05 -0.06
vn 1.00 -0.04 -0.06
vn 0.07 0.95 0.32
vn 0.00 0.70 0.71
vn -0.00 0.71 -0.70
vn 0.70 0.21 0.68
vn 1.00 -0.03 -0.03
vn 1.00 -0.03 -0.04
vn 0.68 -0.34 0.65
vn 0.71 -0.33 0.62
vn 1.00 -0.05 -0.07


vt 0.48 0.77 0.00
vt 0.48 0.73 0.00
vt 0.52 0.73 0.00
vt 0.52 0.77 0.00
vt 0.68 0.91 0.00
vt 0.62 0.91 0.00
vt 0.62 0.89 0.00
vt 0.68 0.89 0.00
vt 0.61 0.85 0.00
vt 0.69 0.85 0.00
vt 0.67 0.86 0.00
vt 0.62 0.86 0.00
vt 0.67 0.89 0.00
vt 0.67 0.91 0.00
vt 0.15 0.75 0.00
vt 0.32 0.75 0.00
vt 0.32 0.77 0.00
vt 0.15 0.77 0.00
vt 0.13 0.77 0.00
vt 0.13 0.75 0.00
vt 0.15 0.76 0.00
vt 0.27 0.76 0.00
vt 0.27 0.77 0.00




f 1/1/1 2/2/1 3/3/1 
f 3/3/1 4/4/1 1/1/1 

f 5/5/2 6/6/2 7/7/2 
f 7/7/2 8/8/2 5/5/2 

f 6/6/3 9/5/3 10/8/3 
f 10/8/3 7/7/3 6/6/3 

f 11/9/1 8/10/1 12/11/1 
f 12/11/1 13/12/1 11/9/1 
f 8/10/1 7/9/1 14/12/1 
f 14/12/1 12/11/1 8/10/1 
f 7/9/1 10/10/1 15/11/1 
f 15/11/1 14/12/1 7/9/1 
f 10/10/1 11/9/1 13/12/1 
f 13/12/1 15/11/1 10/10/1 
f 13/13/3 12/7/3 2/6/3 
f 2/6/3 1/14/3 13/13/3 
f 15/7/2 13/13/2 1/14/2 
f 1/14/2 4/6/2 15/7/2 

f 16/15/4 17/16/4 18/17/5 
f 18/17/5 19/18/6 16/15/4 
f 20/15/7 21/16/8 17/17/4 
f 17/17/4 16/18/4 20/15/7 

f 22/18/9 18/19/9 17/20/9 
f 17/20/9 21/15/9 22/18/9 

f 23/15/10 24/16/11 25/17/12 
f 25/17/12 26/18/13 23/15/10 
f 27/15/14 28/16/15 24/17/11 
f 24/17/11 23/18/10 27/15/14 

f 29/18/16 25/19/16 24/20/16 
f 24/20/16 28/15/16 29/18/16 

f 30/19/3 31/20/3 32/15/3 
f 32/15/3 33/18/3 30/19/3 

f 33/18/17 32/21/17 34/22/17 
f 34/22/17 35/23/17 33/18/17 

f 32/22/18 31/23/18 36/18/18 
f 36/18/18 34/21/18 32/22/18 

f 37/15/4 38/16/19 39/17/5 
f 39/17/5 40/18/6 37/15/4 
f 41/15/20 42/16/21 38/17/19 
f 38/17/19 37/18/4 41/15/20 

f 43/18/9 39/19/9 38/20/9 
f 38/20/9 42/15/9 43/18/9 

f 44/15/22 45/16/23 46/17/12 
f 46/17/12 47/18/13 44/15/22 
f 48/15/14 49/16/24 45/17/23 
f 45/17/23 44/18/22 48/15/14 

f 50/18/16 46/19/16 45/20/16 
f 45/20/16 49/15/16 50/18/16 


