






v  0.38 0.77 0.30
v  0.38 0.77 -0.30
v  0.98 0.77 -0.30
v  0.98 0.77 0.30
v  0.38 1.37 0.30
v  0.98 1.37 0.30
v  0.98 1.37 -0.30
v  0.38 1.37 -0.30


vn 0.00 -1.00 -0.00
vn 0.00 1.00 -0.00
vn 0.00 0.00 1.00
vn 1.00 0.00 -0.00
vn 0.00 0.00 -1.00
vn -1.00 0.00 -0.00


vt 0.00 0.00 0.00
vt 1.00 0.00 0.00
vt 0.00 1.00 0.00
vt 1.00 1.00 0.00
vt 0.00 0.00 0.00
vt 1.00 0.00 0.00
vt 0.00 1.00 0.00
vt 1.00 1.00 0.00
vt 0.00 0.00 0.00
vt 1.00 0.00 0.00
vt 0.00 1.00 0.00
vt 1.00 1.00 0.00



f 1/10/1 2/12/1 3/11/1 
f 3/11/1 4/9/1 1/10/1 
f 5/9/2 6/10/2 7/12/2 
f 7/12/2 8/11/2 5/9/2 
f 1/5/3 4/6/3 6/8/3 
f 6/8/3 5/7/3 1/5/3 
f 4/1/4 3/2/4 7/4/4 
f 7/4/4 6/3/4 4/1/4 
f 3/5/5 2/6/5 8/8/5 
f 8/8/5 7/7/5 3/5/5 
f 2/1/6 1/2/6 5/4/6 
f 5/4/6 8/3/6 2/1/6 


