






v  -0.89 -0.06 0.81
v  -0.51 1.39 0.75
v  -0.35 1.39 0.59
v  -0.82 -0.06 0.74
v  -0.29 -0.06 0.74
v  -0.37 -0.06 0.81
v  -0.83 1.39 0.93
v  -0.67 1.39 0.78
v  -0.89 -0.06 -0.60
v  -0.51 1.39 -0.66
v  -0.35 1.39 -0.82
v  -0.82 -0.06 -0.67
v  -0.29 -0.06 -0.67
v  -0.37 -0.06 -0.60
v  -0.83 1.39 -0.48
v  -0.67 1.39 -0.63
v  -0.55 1.26 -0.72
v  -0.55 1.26 0.98
v  -0.66 1.34 0.98
v  -0.66 1.34 -0.72
v  -0.53 0.85 -0.52
v  -0.53 0.75 -0.34
v  -0.53 0.85 -0.17
v  -0.53 1.31 -0.17
v  -0.53 1.31 -0.52
v  -0.68 1.41 -0.17
v  -0.68 1.41 -0.52
v  -0.68 0.83 -0.52
v  -0.68 0.83 -0.17
v  -0.53 0.85 -0.11
v  -0.53 0.75 0.06
v  -0.53 0.85 0.24
v  -0.53 1.31 0.24
v  -0.53 1.31 -0.11
v  -0.68 1.41 0.24
v  -0.68 1.41 -0.11
v  -0.68 0.83 -0.11
v  -0.68 0.83 0.24
v  -0.53 0.85 0.29
v  -0.53 0.75 0.47
v  -0.53 0.85 0.64
v  -0.53 1.31 0.64
v  -0.53 1.31 0.29
v  -0.68 1.41 0.64
v  -0.68 1.41 0.29
v  -0.68 0.83 0.29
v  -0.68 0.83 0.64
v  -0.29 -0.06 0.81
v  0.09 1.39 0.75
v  0.25 1.39 0.59
v  -0.22 -0.06 0.74
v  0.30 -0.06 0.74
v  0.23 -0.06 0.81
v  -0.24 1.39 0.93
v  -0.08 1.39 0.78
v  -0.29 -0.06 -0.60
v  0.09 1.39 -0.66
v  0.25 1.39 -0.82
v  -0.22 -0.06 -0.67
v  0.30 -0.06 -0.67
v  0.23 -0.06 -0.60
v  -0.24 1.39 -0.48
v  -0.08 1.39 -0.63
v  0.05 1.26 -0.72
v  0.05 1.26 0.98
v  -0.06 1.34 0.98
v  -0.06 1.34 -0.72
v  0.07 0.85 -0.52
v  0.07 0.75 -0.34
v  0.07 0.85 -0.17
v  0.07 1.31 -0.17
v  0.07 1.31 -0.52
v  -0.09 1.41 -0.17
v  -0.09 1.41 -0.52
v  -0.09 0.83 -0.52
v  -0.09 0.83 -0.17
v  0.07 0.85 -0.11
v  0.07 0.75 0.06
v  0.07 0.85 0.24
v  0.07 1.31 0.24
v  0.07 1.31 -0.11
v  -0.09 1.41 0.24
v  -0.09 1.41 -0.11
v  -0.09 0.83 -0.11
v  -0.09 0.83 0.24
v  0.07 0.85 0.29
v  0.07 0.75 0.47
v  0.07 0.85 0.64
v  0.07 1.31 0.64
v  0.07 1.31 0.29
v  -0.09 1.41 0.64
v  -0.09 1.41 0.29
v  -0.09 0.83 0.29
v  -0.09 0.83 0.64


vn 0.67 0.25 0.70
vn 0.69 0.17 0.70
vn 0.67 0.27 0.70
vn 0.70 0.16 0.70
vn 0.59 0.81 0.00
vn 1.00 -0.00 0.00
vn 1.00 0.00 0.00
vn 0.87 0.50 0.00
vn 0.50 0.86 0.00
vn 0.70 -0.15 0.70


vt 0.33 0.75 0.00
vt 0.13 0.75 0.00
vt 0.13 0.77 0.00
vt 0.33 0.77 0.00
vt 0.57 0.69 0.00
vt 0.58 0.68 0.00
vt 0.59 0.69 0.00
vt 0.59 0.72 0.00
vt 0.57 0.72 0.00
vt 0.57 0.73 0.00
vt 0.59 0.73 0.00




f 3/3/2 2/2/2 1/1/1 
f 1/1/1 4/4/1 3/3/2 
f 7/3/4 6/4/1 5/1/3 
f 5/1/3 8/2/4 7/3/4 
f 11/3/1 10/2/2 9/1/2 
f 9/1/2 12/4/3 11/3/1 
f 15/3/4 14/4/3 13/1/3 
f 13/1/3 16/2/4 15/3/4 

f 19/3/5 18/2/5 17/1/5 
f 17/1/5 20/4/5 19/3/5 
f 23/7/6 22/6/7 21/5/6 
f 21/5/6 25/9/8 24/8/8 
f 24/8/8 23/7/6 21/5/6 
f 25/9/8 27/5/8 26/7/9 
f 26/7/9 24/8/8 25/9/8 
f 29/11/6 28/10/6 27/5/8 
f 27/5/8 26/7/6 29/11/6 
f 32/7/6 31/6/7 30/5/6 
f 30/5/6 34/9/8 33/8/8 
f 33/8/8 32/7/6 30/5/6 
f 34/9/8 36/5/8 35/7/9 
f 35/7/9 33/8/8 34/9/8 
f 38/11/6 37/10/6 36/5/8 
f 36/5/8 35/7/6 38/11/6 
f 41/7/6 40/6/7 39/5/6 
f 39/5/6 43/9/8 42/8/8 
f 42/8/8 41/7/6 39/5/6 
f 43/9/8 45/5/8 44/7/9 
f 44/7/9 42/8/8 43/9/8 
f 47/11/6 46/10/6 45/5/8 
f 45/5/8 44/7/6 47/11/6 

f 50/3/10 49/2/10 48/1/10 
f 48/1/10 51/4/10 50/3/10 
f 54/3/4 53/4/4 52/1/4 
f 52/1/4 55/2/4 54/3/4 
f 58/3/10 57/2/10 56/1/10 
f 56/1/10 59/4/10 58/3/10 
f 62/3/4 61/4/4 60/1/4 
f 60/1/4 63/2/4 62/3/4 

f 66/3/5 65/2/5 64/1/5 
f 64/1/5 67/4/5 66/3/5 
f 70/7/6 69/6/7 68/5/6 
f 68/5/6 72/9/8 71/8/8 
f 71/8/8 70/7/6 68/5/6 
f 72/9/8 74/5/8 73/7/9 
f 73/7/9 71/8/8 72/9/8 
f 76/11/6 75/10/6 74/5/8 
f 74/5/8 73/7/6 76/11/6 
f 79/7/6 78/6/7 77/5/6 
f 77/5/6 81/9/8 80/8/8 
f 80/8/8 79/7/6 77/5/6 
f 81/9/8 83/5/8 82/7/9 
f 82/7/9 80/8/8 81/9/8 
f 85/11/6 84/10/6 83/5/8 
f 83/5/8 82/7/6 85/11/6 
f 88/7/6 87/6/7 86/5/6 
f 86/5/6 90/9/8 89/8/8 
f 89/8/8 88/7/6 86/5/6 
f 90/9/8 92/5/8 91/7/9 
f 91/7/9 89/8/8 90/9/8 
f 94/11/6 93/10/6 92/5/8 
f 92/5/8 91/7/6 94/11/6 


