






v  1.43 1.29 0.59
v  1.37 1.23 -0.12
v  0.42 1.13 -0.18
v  0.32 1.23 0.54
v  1.43 1.29 -0.84
v  0.56 1.15 -0.78
v  -0.26 1.29 -0.84
v  -0.22 1.23 -0.17
v  1.43 -0.30 0.59
v  1.37 -0.23 -0.12
v  1.27 0.50 -0.12
v  1.37 0.50 0.54
v  1.43 -0.30 -0.84
v  1.37 0.50 -0.78
v  0.45 -0.23 0.54
v  0.37 0.50 0.48
v  1.88 0.45 1.92
v  1.88 0.45 1.45
v  1.40 0.45 1.45
v  1.40 0.45 1.92
v  1.88 -0.26 1.92
v  1.88 -0.26 1.45
v  1.40 -0.26 1.92
v  1.45 0.45 -1.35
v  1.45 0.45 -1.82
v  0.98 0.45 -1.82
v  0.98 0.45 -1.35
v  1.45 -0.28 -1.35
v  1.45 -0.28 -1.82
v  0.98 -0.28 -1.35
v  1.93 0.21 -1.66
v  1.93 0.21 -1.90
v  1.64 0.21 -1.90
v  1.64 0.21 -1.66
v  1.93 -0.34 -1.66
v  1.93 -0.34 -1.90
v  1.64 -0.34 -1.66
v  -0.19 1.44 -0.15
v  -0.26 1.37 -1.16
v  -1.07 1.26 -1.16
v  -1.07 1.37 -0.21
v  -0.19 1.44 -1.94
v  -1.07 1.37 -1.88
v  -1.88 1.37 -1.16
v  -1.95 1.44 -0.15
v  -1.95 1.44 -1.94
v  -0.26 -0.23 -1.16
v  -0.19 -0.30 -1.94
v  -0.26 0.57 -1.88
v  -0.36 0.57 -1.16
v  -0.26 0.57 -0.21
v  0.54 2.18 1.84
v  0.44 2.08 0.70
v  -0.73 1.93 0.70
v  -0.73 2.08 1.75
v  0.54 2.18 -0.44
v  -0.73 2.08 -0.35
v  -1.90 2.08 0.70
v  -2.00 2.18 1.84
v  -2.00 2.18 -0.44
v  0.54 -0.33 1.84
v  0.44 -0.23 0.70
v  0.29 0.92 0.70
v  0.44 0.92 1.75
v  0.54 -0.33 -0.44
v  0.44 0.92 -0.35
v  -2.00 -0.33 1.84
v  -0.73 -0.23 1.75
v  -0.73 0.92 1.61
v  -1.90 0.92 1.75


vn -0.09 0.99 -0.13
vn -0.14 0.99 -0.02
vn 0.01 1.00 -0.01
vn -0.06 0.98 -0.17
vn -0.18 0.98 0.09
vn 0.00 1.00 0.06
vn 0.19 0.98 0.09
vn 0.18 0.98 0.10
vn 0.99 0.09 -0.11
vn 1.00 0.10 0.02
vn 1.00 -0.00 -0.00
vn 0.99 -0.02 -0.13
vn 0.99 0.06 0.08
vn 0.99 0.02 0.13
vn 1.00 -0.10 -0.02
vn 0.99 -0.06 -0.08
vn 0.99 -0.09 0.11
vn -0.06 0.06 1.00
vn -0.05 0.06 1.00
vn -0.06 0.00 1.00
vn -0.05 -0.00 1.00
vn -0.05 -0.06 1.00
vn -0.05 -0.07 1.00
vn 0.00 1.00 -0.00
vn 0.00 -0.00 1.00
vn 1.00 0.00 -0.00
vn 0.00 0.00 1.00
vn -0.12 0.99 -0.10
vn -0.14 0.99 0.03
vn -0.00 1.00 0.02
vn 0.02 0.99 -0.12
vn -0.09 0.99 0.10
vn -0.02 0.99 0.15
vn 0.14 0.99 -0.01
vn 0.09 0.99 -0.08
vn 0.12 0.98 0.13
vn 0.99 0.08 0.11
vn 1.00 -0.03 0.05
vn 0.99 -0.09 -0.09
vn 0.99 -0.10 -0.00
vn 1.00 -0.06 -0.06
vn -0.12 0.98 -0.13
vn -0.14 0.99 0.02
vn -0.00 1.00 -0.00
vn 0.02 0.99 -0.15
vn 0.14 0.99 -0.02
vn 0.09 0.99 -0.10
vn 0.09 0.08 0.99
vn -0.01 0.09 1.00
vn 0.11 -0.01 0.99
vn -0.07 0.06 1.00
vn -0.11 0.01 0.99
vn 0.01 -0.09 1.00
vn 0.07 -0.06 1.00
vn -0.09 -0.08 0.99


vt 0.55 0.85 0.00
vt 0.55 0.81 0.00
vt 0.50 0.81 0.00
vt 0.50 0.85 0.00
vt 0.55 0.78 0.00
vt 0.50 0.78 0.00
vt 0.46 0.78 0.00
vt 0.46 0.81 0.00
vt 0.39 0.78 0.00
vt 0.42 0.78 0.00
vt 0.42 0.82 0.00
vt 0.39 0.82 0.00
vt 0.46 0.82 0.00
vt 0.42 0.85 0.00
vt 0.39 0.85 0.00
vt 0.46 0.85 0.00
vt 0.42 0.69 0.00
vt 0.47 0.69 0.00
vt 0.47 0.73 0.00
vt 0.42 0.73 0.00
vt 0.47 0.77 0.00
vt 0.42 0.77 0.00
vt 0.47 0.84 0.00
vt 0.47 0.82 0.00
vt 0.49 0.82 0.00
vt 0.49 0.84 0.00
vt 0.61 0.99 0.00
vt 0.61 0.93 0.00
vt 0.56 0.93 0.00
vt 0.56 0.99 0.00
vt 0.51 0.93 0.00
vt 0.56 0.87 0.00
vt 0.51 0.87 0.00
vt 0.61 0.87 0.00
vt 0.51 0.99 0.00




f 1/1/1 2/2/2 3/3/3 
f 3/3/3 4/4/4 1/1/1 
f 2/2/2 5/5/5 6/6/6 
f 6/6/6 3/3/3 2/2/2 
f 3/3/3 6/6/6 7/7/7 
f 7/7/7 8/8/8 3/3/3 

f 9/9/9 10/10/10 11/11/11 
f 11/11/11 12/12/12 9/9/9 
f 10/10/10 13/7/13 14/13/14 
f 14/13/14 11/11/11 10/10/10 
f 12/12/12 11/11/11 2/14/15 
f 2/14/15 1/15/16 12/12/12 
f 11/11/11 14/13/14 5/16/17 
f 5/16/17 2/14/15 11/11/11 

f 15/17/18 9/18/19 12/19/20 
f 12/19/20 16/20/21 15/17/18 
f 16/20/21 12/19/20 1/21/22 
f 1/21/22 4/22/23 16/20/21 

f 17/23/24 18/24/24 19/25/24 
f 19/25/24 20/26/24 17/23/24 

f 21/23/11 22/24/11 18/25/11 
f 18/25/11 17/26/11 21/23/11 

f 23/23/25 21/24/25 17/25/25 
f 17/25/25 20/26/25 23/23/25 

f 24/23/24 25/24/24 26/25/24 
f 26/25/24 27/26/24 24/23/24 

f 28/23/26 29/24/26 25/25/26 
f 25/25/26 24/26/26 28/23/26 

f 30/25/27 28/26/27 24/23/27 
f 24/23/27 27/24/27 30/25/27 

f 31/23/24 32/24/24 33/25/24 
f 33/25/24 34/26/24 31/23/24 

f 35/23/26 36/24/26 32/25/26 
f 32/25/26 31/26/26 35/23/26 

f 37/25/27 35/26/27 31/23/27 
f 31/23/27 34/24/27 37/25/27 

f 38/7/28 39/13/29 40/11/30 
f 40/11/30 41/10/31 38/7/28 
f 39/13/29 42/16/32 43/14/33 
f 43/14/33 40/11/30 39/13/29 
f 41/10/31 40/11/30 44/12/34 
f 44/12/34 45/9/35 41/10/31 
f 40/11/30 43/14/33 46/15/36 
f 46/15/36 44/12/34 40/11/30 

f 47/8/37 48/7/13 49/6/14 
f 49/6/14 50/3/38 47/8/37 
f 51/4/39 50/3/38 39/2/40 
f 39/2/40 38/1/41 51/4/39 
f 50/3/38 49/6/14 42/5/17 
f 42/5/17 39/2/40 50/3/38 

f 52/27/42 53/28/43 54/29/44 
f 54/29/44 55/30/45 52/27/42 
f 53/30/43 56/27/32 57/28/33 
f 57/28/33 54/29/44 53/30/43 
f 55/31/45 54/29/44 58/32/46 
f 58/32/46 59/33/47 55/31/45 
f 54/29/44 57/28/33 60/34/36 
f 60/34/36 58/32/46 54/29/44 

f 61/33/9 62/32/10 63/29/26 
f 63/29/26 64/31/12 61/33/9 
f 62/32/10 65/34/13 66/28/14 
f 66/28/14 63/29/26 62/32/10 
f 64/31/12 63/29/26 53/30/15 
f 53/30/15 52/35/16 64/31/12 
f 63/29/26 66/28/14 56/27/17 
f 56/27/17 53/30/15 63/29/26 

f 67/33/48 68/32/49 69/29/27 
f 69/29/27 70/31/50 67/33/48 
f 68/32/49 61/34/51 64/28/52 
f 64/28/52 69/29/27 68/32/49 
f 70/31/50 69/29/27 55/30/53 
f 55/30/53 59/35/54 70/31/50 
f 69/29/27 64/28/52 52/27/55 
f 52/27/55 55/30/53 69/29/27 


