






v  -0.23 3.13 0.17
v  0.20 3.12 0.18
v  0.21 3.10 -0.21
v  -0.23 3.11 -0.22
v  -0.34 -0.71 0.34
v  0.34 -0.71 0.34
v  0.70 0.99 0.50
v  -0.56 0.99 0.52
v  0.34 -0.71 -0.34
v  0.67 0.96 -0.76
v  -0.34 -0.71 -0.34
v  -0.59 0.95 -0.74
v  -0.05 3.05 0.10
v  0.90 3.65 -0.69
v  0.46 4.11 -0.86
v  1.24 3.60 -1.65
v  0.80 4.06 -1.83
v  0.96 3.30 -2.60
v  -0.16 3.81 -1.04
v  0.17 3.76 -2.01
v  -0.15 2.93 -0.01
v  0.88 3.66 0.52
v  0.89 4.04 -0.01
v  1.85 3.59 0.52
v  1.85 3.97 -0.01
v  2.65 3.19 -0.01
v  0.88 3.66 -0.55
v  1.85 3.59 -0.55
v  0.08 2.98 0.05
v  -0.34 3.87 -0.91
v  -0.54 4.29 -0.44
v  -1.19 4.07 -1.45
v  -1.38 4.49 -0.98
v  -2.22 3.94 -1.44
v  -0.89 3.95 -0.00
v  -1.74 4.15 -0.54
v  0.08 3.05 -0.09
v  -1.09 3.72 0.19
v  -0.76 4.12 0.59
v  -1.85 3.67 0.97
v  -1.52 4.07 1.27
v  -1.97 3.31 1.82
v  -0.38 3.76 0.99
v  -1.14 3.71 1.67
v  -0.03 3.05 -0.09
v  -0.11 3.78 1.07
v  0.45 4.09 0.91
v  0.21 3.71 2.04
v  0.77 4.01 1.89
v  0.91 3.23 2.65
v  0.90 3.64 0.73
v  1.21 3.56 1.71
v  0.43 0.07 -0.43
v  0.44 0.07 0.12
v  1.08 0.30 -0.16
v  -0.28 0.07 0.32
v  -0.38 0.07 -0.23
v  -0.96 0.30 0.16
v  0.29 0.07 0.37
v  -0.27 0.07 0.38
v  0.02 0.30 1.02
v  -0.17 0.07 -0.45
v  0.38 0.07 -0.52
v  0.02 0.30 -1.13


vn 0.02 1.00 -0.04
vn -0.69 -0.16 0.71
vn 0.67 -0.20 0.72
vn 0.74 0.02 0.68
vn -0.70 0.02 0.72
vn 0.65 0.26 0.72
vn -0.69 0.23 0.68
vn 0.69 -0.30 -0.66
vn 0.69 0.00 -0.72
vn 0.69 0.32 -0.65
vn -0.71 -0.25 -0.66
vn -0.70 0.00 -0.71
vn -0.70 0.28 -0.66
vn -0.13 0.70 0.70
vn 0.51 0.69 0.52
vn 0.05 0.94 0.34
vn 0.74 0.67 -0.08
vn 0.27 0.92 -0.30
vn 0.32 0.71 -0.63
vn -0.47 0.86 0.18
vn -0.29 0.85 -0.43
vn -0.73 0.68 -0.00
vn -0.32 0.77 0.55
vn -0.32 0.95 -0.00
vn 0.34 0.76 0.55
vn 0.37 0.93 -0.00
vn 0.70 0.71 -0.00
vn -0.32 0.77 -0.55
vn 0.34 0.76 -0.55
vn 0.75 0.51 0.42
vn 0.74 0.63 -0.25
vn 0.49 0.84 0.23
vn 0.22 0.78 -0.59
vn -0.06 0.99 -0.13
vn -0.39 0.86 -0.32
vn 0.17 0.71 0.68
vn -0.36 0.86 0.36
vn 0.51 0.71 -0.49
vn -0.15 0.74 -0.65
vn 0.20 0.95 -0.24
vn -0.69 0.70 -0.18
vn -0.32 0.92 0.21
vn -0.54 0.68 0.50
vn 0.58 0.80 0.17
vn 0.10 0.78 0.61
vn -0.12 0.72 -0.68
vn -0.51 0.85 -0.15
vn 0.03 0.95 -0.31
vn -0.32 0.82 0.47
vn 0.24 0.91 0.33
vn 0.32 0.69 0.65
vn 0.52 0.70 -0.49
vn 0.73 0.67 0.12
vn -0.34 0.94 0.00
vn 0.33 0.94 -0.06
vn -0.01 0.94 -0.34
vn 0.04 0.94 0.34


vt 0.13 0.77 0.00
vt 0.13 0.75 0.00
vt 0.15 0.75 0.00
vt 0.15 0.77 0.00
vt 0.30 0.85 0.00
vt 0.32 0.85 0.00
vt 0.33 0.91 0.00
vt 0.29 0.91 0.00
vt 0.32 0.99 0.00
vt 0.30 0.99 0.00
vt 0.28 0.84 0.00
vt 0.30 0.84 0.00
vt 0.28 0.80 0.00
vt 0.29 0.80 0.00
vt 0.29 0.79 0.00
vt 0.31 0.84 0.00
vt 0.31 0.80 0.00




f 1/1/1 2/2/1 3/3/1 
f 3/3/1 4/4/1 1/1/1 

f 5/5/2 6/6/3 7/7/4 
f 7/7/4 8/8/5 5/5/2 
f 8/8/5 7/7/4 2/9/6 
f 2/9/6 1/10/7 8/8/5 
f 6/5/3 9/6/8 10/7/9 
f 10/7/9 7/8/4 6/5/3 
f 7/8/4 10/7/9 3/9/10 
f 3/9/10 2/10/6 7/8/4 
f 9/5/8 11/6/11 12/7/12 
f 12/7/12 10/8/9 9/5/8 
f 10/8/9 12/7/12 4/9/13 
f 4/9/13 3/10/10 10/8/9 
f 11/5/11 5/6/2 8/7/5 
f 8/7/5 12/8/12 11/5/11 
f 12/8/12 8/7/5 1/9/7 
f 1/9/7 4/10/13 12/8/12 

f 13/5/14 14/11/15 15/12/16 
f 14/11/15 16/13/17 17/14/18 
f 17/14/18 15/12/16 14/11/15 
f 17/14/18 16/13/17 18/15/19 
f 13/5/14 15/12/16 19/16/20 
f 15/12/16 17/14/18 20/17/21 
f 20/17/21 19/16/20 15/12/16 
f 20/17/21 17/14/18 18/15/19 
f 21/5/22 22/11/23 23/12/24 
f 22/11/23 24/13/25 25/14/26 
f 25/14/26 23/12/24 22/11/23 
f 25/14/26 24/13/25 26/15/27 
f 21/5/22 23/12/24 27/16/28 
f 23/12/24 25/14/26 28/17/29 
f 28/17/29 27/16/28 23/12/24 
f 28/17/29 25/14/26 26/15/27 
f 29/5/30 30/11/31 31/12/32 
f 30/11/31 32/13/33 33/14/34 
f 33/14/34 31/12/32 30/11/31 
f 33/14/34 32/13/33 34/15/35 
f 29/5/30 31/12/32 35/16/36 
f 31/12/32 33/14/34 36/17/37 
f 36/17/37 35/16/36 31/12/32 
f 36/17/37 33/14/34 34/15/35 
f 37/5/38 38/11/39 39/12/40 
f 38/11/39 40/13/41 41/14/42 
f 41/14/42 39/12/40 38/11/39 
f 41/14/42 40/13/41 42/15/43 
f 37/5/38 39/12/40 43/16/44 
f 39/12/40 41/14/42 44/17/45 
f 44/17/45 43/16/44 39/12/40 
f 44/17/45 41/14/42 42/15/43 
f 45/5/46 46/11/47 47/12/48 
f 46/11/47 48/13/49 49/14/50 
f 49/14/50 47/12/48 46/11/47 
f 49/14/50 48/13/49 50/15/51 
f 45/5/46 47/12/48 51/16/52 
f 47/12/48 49/14/50 52/17/53 
f 52/17/53 51/16/52 47/12/48 
f 52/17/53 49/14/50 50/15/51 
f 53/17/54 54/13/54 55/15/54 
f 56/17/55 57/13/55 58/15/55 
f 59/17/56 60/13/56 61/15/56 
f 62/17/57 63/13/57 64/15/57 


