






v  -0.01 3.28 -0.14
v  0.38 3.08 -0.13
v  0.36 3.04 -0.52
v  -0.03 3.23 -0.53
v  -0.34 -0.71 0.34
v  0.34 -0.71 0.34
v  0.25 0.95 0.50
v  -1.00 1.07 0.52
v  0.34 -0.71 -0.34
v  0.22 0.87 -0.76
v  -0.34 -0.71 -0.34
v  -1.03 0.99 -0.74
v  0.16 3.01 -0.28
v  1.20 3.46 -1.07
v  0.84 3.98 -1.25
v  1.52 3.35 -2.03
v  1.16 3.88 -2.21
v  1.20 3.10 -2.99
v  0.24 3.77 -1.43
v  0.56 3.67 -2.39
v  0.04 2.91 -0.40
v  1.18 3.47 0.14
v  1.25 3.85 -0.40
v  2.19 3.29 0.14
v  2.26 3.67 -0.40
v  2.94 2.81 -0.40
v  1.18 3.47 -0.93
v  2.19 3.29 -0.93
v  0.27 2.92 -0.32
v  0.11 3.86 -1.32
v  -0.07 4.30 -0.87
v  -0.63 4.19 -1.94
v  -0.81 4.63 -1.49
v  -1.67 4.22 -2.05
v  -0.52 4.03 -0.47
v  -1.26 4.36 -1.10
v  0.29 2.99 -0.48
v  -0.76 3.84 -0.19
v  -0.37 4.19 0.21
v  -1.52 3.91 0.49
v  -1.13 4.26 0.89
v  -1.81 3.60 1.44
v  -0.05 3.77 0.60
v  -0.81 3.85 1.29
v  0.14 3.02 -0.50
v  0.40 3.72 0.65
v  0.96 3.94 0.40
v  0.87 3.57 1.55
v  1.43 3.79 1.29
v  1.58 2.97 2.01
v  1.29 3.43 0.14
v  1.76 3.28 1.03
v  0.29 0.07 -0.25
v  0.29 0.07 0.31
v  0.93 0.30 0.03
v  -0.72 0.07 0.07
v  -0.51 0.07 -0.45
v  -1.21 0.30 -0.43
v  -0.31 0.07 0.54
v  -0.73 0.07 0.17
v  -0.94 0.30 0.83
v  -0.22 0.07 -0.53
v  0.29 0.07 -0.29
v  0.31 0.30 -0.99


vn 0.45 0.89 -0.12
vn -0.60 -0.29 0.74
vn 0.74 -0.01 0.67
vn 0.67 0.06 0.74
vn -0.73 0.08 0.68
vn 0.71 0.14 0.69
vn -0.61 0.47 0.64
vn 0.77 -0.09 -0.63
vn 0.64 -0.07 -0.77
vn 0.69 0.03 -0.72
vn -0.61 -0.39 -0.69
vn -0.76 -0.03 -0.65
vn -0.66 0.37 -0.65
vn -0.03 0.71 0.70
vn 0.61 0.60 0.52
vn 0.18 0.92 0.34
vn 0.83 0.55 -0.08
vn 0.40 0.87 -0.30
vn 0.44 0.64 -0.62
vn -0.37 0.92 0.15
vn -0.17 0.87 -0.45
vn -0.61 0.79 0.00
vn -0.22 0.81 0.55
vn -0.19 0.98 0.00
vn 0.41 0.72 0.56
vn 0.48 0.88 0.00
vn 0.78 0.62 -0.00
vn -0.22 0.81 -0.55
vn 0.41 0.72 -0.56
vn 0.78 0.39 0.50
vn 0.85 0.50 -0.16
vn 0.59 0.75 0.28
vn 0.40 0.72 -0.56
vn 0.11 0.99 -0.13
vn -0.21 0.91 -0.35
vn 0.21 0.68 0.70
vn -0.26 0.91 0.32
vn 0.61 0.62 -0.49
vn -0.03 0.76 -0.64
vn 0.35 0.90 -0.24
vn -0.51 0.83 -0.23
vn -0.15 0.97 0.21
vn -0.42 0.79 0.44
vn 0.70 0.70 0.17
vn 0.24 0.76 0.61
vn -0.13 0.75 -0.65
vn -0.38 0.92 -0.05
vn 0.13 0.94 -0.31
vn -0.09 0.85 0.52
vn 0.44 0.85 0.28
vn 0.54 0.61 0.58
vn 0.53 0.63 -0.58
vn 0.84 0.54 -0.02
vn -0.34 0.94 -0.00
vn 0.31 0.94 0.13
vn 0.22 0.94 -0.25
vn -0.14 0.94 0.31


vt 0.13 0.77 0.00
vt 0.13 0.75 0.00
vt 0.15 0.75 0.00
vt 0.15 0.77 0.00
vt 0.30 0.85 0.00
vt 0.32 0.85 0.00
vt 0.33 0.91 0.00
vt 0.29 0.91 0.00
vt 0.32 0.99 0.00
vt 0.30 0.99 0.00
vt 0.28 0.84 0.00
vt 0.30 0.84 0.00
vt 0.28 0.80 0.00
vt 0.29 0.80 0.00
vt 0.29 0.79 0.00
vt 0.31 0.84 0.00
vt 0.31 0.80 0.00




f 1/1/1 2/2/1 3/3/1 
f 3/3/1 4/4/1 1/1/1 

f 5/5/2 6/6/3 7/7/4 
f 7/7/4 8/8/5 5/5/2 
f 8/8/5 7/7/4 2/9/6 
f 2/9/6 1/10/7 8/8/5 
f 6/5/3 9/6/8 10/7/9 
f 10/7/9 7/8/4 6/5/3 
f 7/8/4 10/7/9 3/9/10 
f 3/9/10 2/10/6 7/8/4 
f 9/5/8 11/6/11 12/7/12 
f 12/7/12 10/8/9 9/5/8 
f 10/8/9 12/7/12 4/9/13 
f 4/9/13 3/10/10 10/8/9 
f 11/5/11 5/6/2 8/7/5 
f 8/7/5 12/8/12 11/5/11 
f 12/8/12 8/7/5 1/9/7 
f 1/9/7 4/10/13 12/8/12 

f 13/5/14 14/11/15 15/12/16 
f 14/11/15 16/13/17 17/14/18 
f 17/14/18 15/12/16 14/11/15 
f 17/14/18 16/13/17 18/15/19 
f 13/5/14 15/12/16 19/16/20 
f 15/12/16 17/14/18 20/17/21 
f 20/17/21 19/16/20 15/12/16 
f 20/17/21 17/14/18 18/15/19 
f 21/5/22 22/11/23 23/12/24 
f 22/11/23 24/13/25 25/14/26 
f 25/14/26 23/12/24 22/11/23 
f 25/14/26 24/13/25 26/15/27 
f 21/5/22 23/12/24 27/16/28 
f 23/12/24 25/14/26 28/17/29 
f 28/17/29 27/16/28 23/12/24 
f 28/17/29 25/14/26 26/15/27 
f 29/5/30 30/11/31 31/12/32 
f 30/11/31 32/13/33 33/14/34 
f 33/14/34 31/12/32 30/11/31 
f 33/14/34 32/13/33 34/15/35 
f 29/5/30 31/12/32 35/16/36 
f 31/12/32 33/14/34 36/17/37 
f 36/17/37 35/16/36 31/12/32 
f 36/17/37 33/14/34 34/15/35 
f 37/5/38 38/11/39 39/12/40 
f 38/11/39 40/13/41 41/14/42 
f 41/14/42 39/12/40 38/11/39 
f 41/14/42 40/13/41 42/15/43 
f 37/5/38 39/12/40 43/16/44 
f 39/12/40 41/14/42 44/17/45 
f 44/17/45 43/16/44 39/12/40 
f 44/17/45 41/14/42 42/15/43 
f 45/5/46 46/11/47 47/12/48 
f 46/11/47 48/13/49 49/14/50 
f 49/14/50 47/12/48 46/11/47 
f 49/14/50 48/13/49 50/15/51 
f 45/5/46 47/12/48 51/16/52 
f 47/12/48 49/14/50 52/17/53 
f 52/17/53 51/16/52 47/12/48 
f 52/17/53 49/14/50 50/15/51 
f 53/17/54 54/13/54 55/15/54 
f 56/17/55 57/13/55 58/15/55 
f 59/17/56 60/13/56 61/15/56 
f 62/17/57 63/13/57 64/15/57 


