






v  -0.23 1.82 0.17
v  0.20 1.81 0.18
v  0.21 1.79 -0.21
v  -0.23 1.80 -0.22
v  -0.56 -0.33 0.52
v  0.70 -0.32 0.50
v  0.67 -0.36 -0.76
v  -0.59 -0.36 -0.74
v  -0.15 1.62 -0.01
v  0.88 2.35 0.52
v  0.89 2.73 -0.01
v  1.85 2.28 0.52
v  2.34 2.31 -0.01
v  0.88 2.35 -0.55
v  1.85 2.28 -0.55
v  0.08 1.66 0.05
v  -0.34 2.56 -0.91
v  -0.54 2.97 -0.44
v  -1.19 2.76 -1.45
v  -1.80 2.54 -1.21
v  -0.89 2.64 -0.00
v  -1.74 2.84 -0.54
v  0.08 1.73 -0.09
v  -1.09 2.41 0.19
v  -0.76 2.81 0.59
v  -1.85 2.35 0.97
v  -1.52 2.76 1.27
v  -1.97 2.00 1.82
v  -0.38 2.45 0.99
v  -1.14 2.40 1.67
v  -0.03 1.74 -0.09
v  -0.11 2.47 1.07
v  0.45 2.78 0.91
v  0.21 2.39 2.04
v  0.77 2.70 1.89
v  0.91 1.92 2.65
v  0.90 2.33 0.73
v  1.21 2.25 1.71
v  0.10 2.07 -0.02
v  0.10 2.91 -0.86
v  -0.27 3.35 -0.67
v  -0.75 3.08 -1.82
v  -0.56 3.03 -0.55
v  0.09 2.07 0.00
v  -0.51 2.91 0.58
v  -0.12 3.35 0.72
v  -0.59 3.08 1.87
v  0.17 3.03 0.84
v  0.23 2.07 -0.04
v  1.03 2.91 0.70
v  1.28 3.35 0.38
v  1.94 2.59 1.00
v  1.34 3.03 0.04
v  -0.05 1.73 0.10
v  0.90 2.34 -0.69
v  0.46 2.80 -0.86
v  1.24 2.29 -1.65
v  0.80 2.75 -1.83
v  0.96 1.98 -2.60
v  -0.16 2.50 -1.04
v  0.17 2.44 -2.01


vn 0.02 1.00 -0.04
vn -0.69 0.22 0.69
vn 0.71 0.26 0.65
vn 0.65 0.26 0.72
vn -0.69 0.23 0.68
vn 0.65 0.31 -0.70
vn 0.69 0.32 -0.65
vn -0.67 0.27 -0.69
vn -0.70 0.28 -0.66
vn -0.73 0.68 -0.00
vn -0.25 0.82 0.52
vn -0.25 0.97 0.03
vn 0.07 0.99 0.14
vn 0.22 0.98 0.02
vn -0.32 0.77 -0.55
vn 0.21 0.90 -0.38
vn 0.75 0.51 0.42
vn 0.74 0.63 -0.25
vn 0.43 0.89 0.18
vn -0.15 0.98 -0.11
vn -0.21 0.96 -0.20
vn 0.17 0.71 0.68
vn -0.09 0.98 -0.19
vn 0.51 0.71 -0.49
vn -0.15 0.74 -0.65
vn 0.20 0.95 -0.24
vn -0.69 0.70 -0.18
vn -0.32 0.92 0.21
vn -0.54 0.68 0.50
vn 0.58 0.80 0.17
vn 0.10 0.78 0.61
vn -0.12 0.72 -0.68
vn -0.51 0.85 -0.15
vn 0.03 0.95 -0.31
vn -0.32 0.82 0.47
vn 0.24 0.91 0.33
vn 0.32 0.69 0.65
vn 0.52 0.70 -0.49
vn 0.73 0.67 0.12
vn 0.46 0.50 0.73
vn 0.78 0.61 0.11
vn 0.14 0.94 0.30
vn 0.06 0.97 -0.25
vn -0.41 0.62 0.67
vn 0.20 0.50 -0.84
vn -0.47 0.61 -0.64
vn 0.12 0.94 -0.31
vn -0.22 0.97 0.14
vn 0.76 0.62 -0.18
vn -0.73 0.66 -0.20
vn -0.53 0.67 0.52
vn 0.02 1.00 -0.02
vn 0.45 0.77 0.46
vn 0.06 0.74 -0.67
vn -0.13 0.70 0.70
vn 0.51 0.69 0.52
vn 0.05 0.94 0.34
vn 0.74 0.67 -0.08
vn 0.27 0.92 -0.30
vn 0.32 0.71 -0.63
vn -0.47 0.86 0.18
vn -0.29 0.85 -0.43


vt 0.13 0.77 0.00
vt 0.13 0.75 0.00
vt 0.15 0.75 0.00
vt 0.15 0.77 0.00
vt 0.29 0.91 0.00
vt 0.33 0.91 0.00
vt 0.32 0.99 0.00
vt 0.30 0.99 0.00
vt 0.30 0.85 0.00
vt 0.28 0.84 0.00
vt 0.30 0.84 0.00
vt 0.28 0.80 0.00
vt 0.29 0.80 0.00
vt 0.31 0.84 0.00
vt 0.31 0.80 0.00
vt 0.29 0.79 0.00
vt 0.28 0.82 0.00
vt 0.30 0.82 0.00
vt 0.31 0.82 0.00




f 1/1/1 2/2/1 3/3/1 
f 3/3/1 4/4/1 1/1/1 

f 5/5/2 6/6/3 2/7/4 
f 2/7/4 1/8/5 5/5/2 
f 6/5/3 7/6/6 3/7/7 
f 3/7/7 2/8/4 6/5/3 
f 7/5/6 8/6/8 4/7/9 
f 4/7/9 3/8/7 7/5/6 
f 8/5/8 5/6/2 1/7/5 
f 1/7/5 4/8/9 8/5/8 

f 9/9/10 10/10/11 11/11/12 
f 10/10/11 12/12/13 13/13/14 
f 13/13/14 11/11/12 10/10/11 
f 9/9/10 11/11/12 14/14/15 
f 11/11/12 13/13/14 15/15/16 
f 15/15/16 14/14/15 11/11/12 
f 16/9/17 17/10/18 18/11/19 
f 18/11/19 19/12/20 20/16/21 
f 19/12/20 18/11/19 17/10/18 
f 16/9/17 18/11/19 21/14/22 
f 18/11/19 20/16/21 22/15/23 
f 22/15/23 21/14/22 18/11/19 
f 23/9/24 24/10/25 25/11/26 
f 24/10/25 26/12/27 27/13/28 
f 27/13/28 25/11/26 24/10/25 
f 27/13/28 26/12/27 28/16/29 
f 23/9/24 25/11/26 29/14/30 
f 25/11/26 27/13/28 30/15/31 
f 30/15/31 29/14/30 25/11/26 
f 30/15/31 27/13/28 28/16/29 
f 31/9/32 32/10/33 33/11/34 
f 32/10/33 34/12/35 35/13/36 
f 35/13/36 33/11/34 32/10/33 
f 35/13/36 34/12/35 36/16/37 
f 31/9/32 33/11/34 37/14/38 
f 33/11/34 35/13/36 38/15/39 
f 38/15/39 37/14/38 33/11/34 
f 38/15/39 35/13/36 36/16/37 
f 39/9/40 40/17/41 41/18/42 
f 40/17/41 42/16/43 41/18/42 
f 39/9/40 41/18/42 43/19/44 
f 41/18/42 42/16/43 43/19/44 
f 44/9/45 45/17/46 46/18/47 
f 45/17/46 47/16/48 46/18/47 
f 44/9/45 46/18/47 48/19/49 
f 46/18/47 47/16/48 48/19/49 
f 49/9/50 50/17/51 51/18/52 
f 50/17/51 52/16/53 51/18/52 
f 49/9/50 51/18/52 53/19/54 
f 51/18/52 52/16/53 53/19/54 
f 54/9/55 55/10/56 56/11/57 
f 55/10/56 57/12/58 58/13/59 
f 58/13/59 56/11/57 55/10/56 
f 58/13/59 57/12/58 59/16/60 
f 54/9/55 56/11/57 60/14/61 
f 56/11/57 58/13/59 61/15/62 
f 61/15/62 60/14/61 56/11/57 
f 61/15/62 58/13/59 59/16/60 


