






v  -0.90 0.45 0.90
v  -0.45 0.45 0.90
v  -0.45 0.90 0.90
v  -0.90 0.90 0.90
v  -0.00 0.45 0.90
v  0.45 0.45 0.90
v  0.45 0.90 0.90
v  -0.00 0.90 0.90
v  -0.45 0.45 0.75
v  -0.45 0.90 0.75
v  -0.90 0.90 0.75
v  0.45 0.45 0.75
v  0.45 0.90 0.75
v  -0.00 0.90 0.75
v  -0.90 0.00 0.75
v  0.90 0.00 0.75
v  0.90 0.45 0.75
v  -0.90 0.45 0.75
v  0.90 0.00 -0.90
v  0.90 0.45 -0.90
v  -0.45 0.00 0.90
v  0.00 0.00 0.90
v  0.00 0.45 0.90
v  0.45 0.00 0.90
v  0.90 0.00 0.90
v  0.90 0.45 0.90
v  0.00 0.00 0.75
v  0.00 0.45 0.75
v  -0.90 1.80 0.75
v  0.90 1.80 0.75
v  0.90 1.80 -0.90
v  -0.90 1.80 -0.90
v  -0.90 1.35 0.75
v  0.90 1.35 0.75
v  0.90 1.35 -0.90
v  -0.90 1.35 0.90
v  -0.45 1.35 0.90
v  -0.45 1.80 0.90
v  -0.90 1.80 0.90
v  -0.00 1.35 0.90
v  0.45 1.35 0.90
v  0.45 1.80 0.90
v  -0.00 1.80 0.90
v  -0.45 1.35 0.75
v  -0.45 1.80 0.75
v  0.45 1.35 0.75
v  0.45 1.80 0.75
v  -0.00 1.80 0.75
v  0.90 0.90 0.75
v  0.90 0.90 -0.90
v  0.00 1.35 0.90
v  0.90 0.90 0.90
v  0.90 1.35 0.90
v  0.00 1.35 0.75


vn 0.00 0.00 1.00
vn 1.00 0.00 -0.00
vn 1.00 0.00 0.00
vn 0.00 1.00 -0.00
vn 0.00 1.00 -0.01
vn -0.00 1.00 -0.01
vn 0.00 1.00 0.01
vn 1.00 -0.00 -0.00


vt 0.01 0.66 0.00
vt 0.03 0.66 0.00
vt 0.03 0.68 0.00
vt 0.01 0.68 0.00
vt 0.32 0.80 0.00
vt 0.32 0.81 0.00
vt 0.31 0.78 0.00
vt 0.33 0.78 0.00
vt 0.33 0.79 0.00
vt 0.31 0.79 0.00
vt 0.08 0.66 0.00
vt 0.08 0.68 0.00
vt 0.08 0.70 0.00
vt 0.01 0.70 0.00
vt 0.38 0.78 0.00
vt 0.38 0.85 0.00
vt 0.31 0.85 0.00




f 1/1/1 2/2/1 3/3/1 
f 3/3/1 4/4/1 1/1/1 
f 5/1/1 6/2/1 7/3/1 
f 7/3/1 8/4/1 5/1/1 
f 9/5/2 10/6/2 3/6/2 
f 3/6/3 2/5/3 9/5/3 
f 10/7/4 11/8/4 4/9/4 
f 4/9/4 3/10/4 10/7/4 
f 12/5/2 13/6/2 7/6/2 
f 7/6/3 6/5/3 12/5/3 
f 13/7/4 14/8/4 8/9/4 
f 8/9/4 7/10/4 13/7/4 
f 15/11/1 16/1/1 17/4/1 
f 17/4/1 18/12/1 15/11/1 
f 16/13/2 19/14/2 20/4/2 
f 20/4/2 17/12/2 16/13/2 
f 21/1/1 22/2/1 23/3/1 
f 23/3/1 2/4/1 21/1/1 
f 24/1/1 25/2/1 26/3/1 
f 26/3/1 6/4/1 24/1/1 
f 27/5/2 28/6/2 23/6/2 
f 23/6/2 22/5/2 27/5/2 
f 28/7/5 9/8/5 2/9/5 
f 2/9/4 23/10/4 28/7/4 
f 16/5/2 17/6/2 26/6/2 
f 26/6/2 25/5/2 16/5/2 
f 17/7/6 12/8/6 6/9/6 
f 6/9/7 26/10/7 17/7/7 
f 29/7/4 30/15/4 31/16/4 
f 31/16/4 32/17/4 29/7/4 
f 33/11/1 34/1/1 30/4/1 
f 30/4/1 29/12/1 33/11/1 
f 34/13/2 35/14/2 31/4/2 
f 31/4/2 30/12/2 34/13/2 
f 36/1/1 37/2/1 38/3/1 
f 38/3/1 39/4/1 36/1/1 
f 40/1/1 41/2/1 42/3/1 
f 42/3/1 43/4/1 40/1/1 
f 44/5/2 45/6/2 38/6/2 
f 38/6/2 37/5/2 44/5/2 
f 45/7/4 29/8/4 39/9/4 
f 39/9/4 38/10/4 45/7/4 
f 46/5/2 47/6/2 42/6/2 
f 42/6/2 41/5/2 46/5/2 
f 47/7/4 48/8/4 43/9/4 
f 43/9/4 42/10/4 47/7/4 
f 11/11/1 49/1/1 34/4/1 
f 34/4/1 33/12/1 11/11/1 
f 49/13/2 50/14/2 35/4/2 
f 35/4/2 34/12/2 49/13/2 
f 3/1/1 8/2/1 51/3/1 
f 51/3/1 37/4/1 3/1/1 
f 7/1/1 52/2/1 53/3/1 
f 53/3/1 41/4/1 7/1/1 
f 14/5/8 54/6/8 51/6/8 
f 51/6/8 8/5/8 14/5/8 
f 54/7/4 44/8/4 37/9/4 
f 37/9/4 51/10/4 54/7/4 
f 49/5/2 34/6/2 53/6/2 
f 53/6/2 52/5/2 49/5/2 
f 34/7/4 46/8/4 41/9/4 
f 41/9/7 53/10/7 34/7/7 
f 15/11/1 16/1/1 17/4/1 
f 17/4/1 18/12/1 15/11/1 
f 16/13/2 19/14/2 20/4/2 
f 20/4/2 17/12/2 16/13/2 
f 21/1/1 22/2/1 23/3/1 
f 23/3/1 2/4/1 21/1/1 
f 24/1/1 25/2/1 26/3/1 
f 26/3/1 6/4/1 24/1/1 
f 27/5/2 28/6/2 23/6/2 
f 23/6/2 22/5/2 27/5/2 
f 28/7/7 9/8/7 2/9/7 
f 2/9/4 23/10/4 28/7/4 
f 16/5/2 17/6/2 26/6/2 
f 26/6/2 25/5/2 16/5/2 
f 17/7/7 12/8/7 6/9/7 
f 6/9/7 26/10/7 17/7/7 
f 18/11/1 17/1/1 49/4/1 
f 49/4/1 11/12/1 18/11/1 
f 17/13/2 20/14/2 50/4/2 
f 50/4/2 49/12/2 17/13/2 


