






v  -0.90 0.45 0.76
v  0.90 0.45 0.76
v  0.90 0.45 -0.90
v  -0.90 0.45 -0.90
v  -0.90 0.00 0.76
v  0.90 0.00 0.76
v  0.90 0.00 -0.90
v  -0.45 0.00 0.91
v  0.00 0.00 0.91
v  0.00 0.45 0.91
v  -0.45 0.45 0.91
v  0.45 0.00 0.91
v  0.90 0.00 0.91
v  0.90 0.45 0.91
v  0.45 0.45 0.91
v  0.00 0.00 0.76
v  0.00 0.45 0.76
v  -0.45 0.45 0.76
v  0.45 0.45 0.76


vn 0.00 1.00 -0.00
vn 0.00 0.00 1.00
vn 1.00 0.00 -0.00


vt 0.31 0.78 0.00
vt 0.38 0.78 0.00
vt 0.38 0.85 0.00
vt 0.31 0.85 0.00
vt 0.08 0.66 0.00
vt 0.01 0.66 0.00
vt 0.01 0.68 0.00
vt 0.08 0.68 0.00
vt 0.08 0.70 0.00
vt 0.01 0.70 0.00
vt 0.03 0.66 0.00
vt 0.03 0.68 0.00
vt 0.32 0.80 0.00
vt 0.32 0.81 0.00
vt 0.33 0.78 0.00
vt 0.33 0.79 0.00
vt 0.31 0.79 0.00




f 1/1/1 2/2/1 3/3/1 
f 3/3/1 4/4/1 1/1/1 
f 5/5/2 6/6/2 2/7/2 
f 2/7/2 1/8/2 5/5/2 
f 6/9/3 7/10/3 3/7/3 
f 3/7/3 2/8/3 6/9/3 
f 8/6/2 9/11/2 10/12/2 
f 10/12/2 11/7/2 8/6/2 
f 12/6/2 13/11/2 14/12/2 
f 14/12/2 15/7/2 12/6/2 
f 16/13/3 17/14/3 10/14/3 
f 10/14/3 9/13/3 16/13/3 
f 17/1/1 18/15/1 11/16/1 
f 11/16/1 10/17/1 17/1/1 
f 6/13/3 2/14/3 14/14/3 
f 14/14/3 13/13/3 6/13/3 
f 2/1/1 19/15/1 15/16/1 
f 15/16/1 14/17/1 2/1/1 


