
v  -0.900 0.450 0.759
v  0.900 0.450 0.759
v  0.900 0.450 -0.900
v  -0.900 0.450 -0.900
v  -0.900 0.000 0.759
v  0.900 0.000 0.759
v  0.900 0.000 -0.900
v  -0.450 0.000 0.910
v  0.000 0.000 0.910
v  0.000 0.450 0.910
v  -0.450 0.450 0.910
v  0.450 0.000 0.910
v  0.900 0.000 0.910
v  0.900 0.450 0.910
v  0.450 0.450 0.910
v  0.000 0.000 0.759
v  0.000 0.450 0.759
v  -0.450 0.450 0.759
v  0.450 0.450 0.759


vn 0.000 1.000 -0.000
vn 0.000 0.000 1.000
vn 1.000 0.000 -0.000


vt 0.313 0.781 0.000
vt 0.381 0.781 0.000
vt 0.381 0.849 0.000
vt 0.313 0.849 0.000
vt 0.077 0.663 0.000
vt 0.009 0.663 0.000
vt 0.009 0.681 0.000
vt 0.077 0.681 0.000
vt 0.077 0.698 0.000
vt 0.009 0.698 0.000
vt 0.026 0.663 0.000
vt 0.026 0.681 0.000
vt 0.324 0.797 0.000
vt 0.324 0.814 0.000
vt 0.318 0.814 0.000
vt 0.318 0.797 0.000
vt 0.330 0.781 0.000
vt 0.330 0.786 0.000
vt 0.313 0.786 0.000


f 1/1/1 2/2/1 3/3/1 
f 3/3/1 4/4/1 1/1/1 
f 5/5/2 6/6/2 2/7/2 
f 2/7/2 1/8/2 5/5/2 
f 6/9/3 7/10/3 3/7/3 
f 3/7/3 2/8/3 6/9/3 
f 8/6/2 9/11/2 10/12/2 
f 10/12/2 11/7/2 8/6/2 
f 12/6/2 13/11/2 14/12/2 
f 14/12/2 15/7/2 12/6/2 
f 16/13/3 17/14/3 10/15/3 
f 10/15/3 9/16/3 16/13/3 
f 17/1/1 18/17/1 11/18/1 
f 11/18/1 10/19/1 17/1/1 
f 6/13/3 2/14/3 14/15/3 
f 14/15/3 13/16/3 6/13/3 
f 2/1/1 19/17/1 15/18/1 
f 15/18/1 14/19/1 2/1/1 

