






v  -0.900 0.453 0.899
v  -0.450 0.452 0.899
v  -0.450 0.903 0.899
v  -0.900 0.903 0.899
v  -0.000 0.453 0.899
v  0.450 0.452 0.899
v  0.450 0.903 0.899
v  -0.000 0.903 0.899
v  -0.450 0.451 0.748
v  -0.450 0.903 0.748
v  -0.900 0.903 0.748
v  0.450 0.451 0.748
v  0.450 0.903 0.748
v  -0.000 0.903 0.748
v  -0.900 0.000 0.748
v  0.900 0.000 0.748
v  0.900 0.450 0.748
v  -0.900 0.452 0.748
v  0.900 0.000 -0.900
v  0.900 0.452 -0.900
v  -0.450 0.000 0.899
v  0.000 0.000 0.899
v  0.000 0.450 0.899
v  0.450 0.000 0.899
v  0.900 0.000 0.899
v  0.900 0.450 0.899
v  0.000 0.000 0.748
v  0.000 0.450 0.748
v  0.900 0.452 0.748
v  -0.900 1.805 0.748
v  0.900 1.805 0.748
v  0.900 1.805 -0.900
v  -0.900 1.805 -0.900
v  -0.900 1.355 0.748
v  0.900 1.354 0.748
v  0.900 1.355 -0.900
v  -0.900 1.355 0.899
v  -0.450 1.355 0.899
v  -0.450 1.805 0.899
v  -0.900 1.805 0.899
v  -0.000 1.355 0.899
v  0.450 1.355 0.899
v  0.450 1.805 0.899
v  -0.000 1.805 0.899
v  -0.450 1.355 0.748
v  -0.450 1.805 0.748
v  0.450 1.355 0.748
v  0.450 1.805 0.748
v  -0.000 1.805 0.748
v  0.900 0.903 0.748
v  0.900 0.903 -0.900
v  0.000 1.353 0.899
v  0.900 0.903 0.899
v  0.900 1.353 0.899
v  0.000 1.353 0.748
v  0.900 1.355 0.748
v  0.900 0.451 0.748
v  -0.900 0.451 0.748
v  0.900 0.451 -0.900
v  -0.450 0.450 0.899
v  0.450 0.450 0.899


vn 0.000 0.000 1.000
vn 1.000 0.000 -0.000
vn 1.000 0.000 0.000
vn 0.000 1.000 -0.000
vn 0.002 1.000 -0.005
vn 0.003 1.000 -0.000
vn -0.002 1.000 -0.005
vn 0.003 1.000 0.010
vn 1.000 -0.000 -0.000
vn 0.002 1.000 0.005
vn 0.000 1.000 0.005


vt 0.009 0.663 0.000
vt 0.026 0.663 0.000
vt 0.026 0.681 0.000
vt 0.009 0.681 0.000
vt 0.324 0.797 0.000
vt 0.324 0.814 0.000
vt 0.318 0.814 0.000
vt 0.318 0.797 0.000
vt 0.313 0.781 0.000
vt 0.330 0.781 0.000
vt 0.330 0.786 0.000
vt 0.313 0.786 0.000
vt 0.077 0.663 0.000
vt 0.077 0.681 0.000
vt 0.077 0.698 0.000
vt 0.009 0.698 0.000
vt 0.381 0.781 0.000
vt 0.381 0.849 0.000
vt 0.313 0.849 0.000




f 1/1/1 2/2/1 3/3/1 
f 3/3/1 4/4/1 1/1/1 
f 5/1/1 6/2/1 7/3/1 
f 7/3/1 8/4/1 5/1/1 
f 9/5/2 10/6/2 3/7/2 
f 3/7/3 2/8/3 9/5/3 
f 10/9/4 11/10/4 4/11/4 
f 4/11/4 3/12/4 10/9/4 
f 12/5/2 13/6/2 7/7/2 
f 7/7/3 6/8/3 12/5/3 
f 13/9/4 14/10/4 8/11/4 
f 8/11/4 7/12/4 13/9/4 
f 15/13/1 16/1/1 17/4/1 
f 17/4/1 18/14/1 15/13/1 
f 16/15/2 19/16/2 20/4/2 
f 20/4/2 17/14/2 16/15/2 
f 21/1/1 22/2/1 23/3/1 
f 23/3/1 2/4/1 21/1/1 
f 24/1/1 25/2/1 26/3/1 
f 26/3/1 6/4/1 24/1/1 
f 27/5/2 28/6/2 23/7/2 
f 23/7/2 22/8/2 27/5/2 
f 28/9/5 9/10/5 2/11/5 
f 2/11/6 23/12/6 28/9/6 
f 16/5/2 29/6/2 26/7/2 
f 26/7/2 25/8/2 16/5/2 
f 29/9/7 12/10/7 6/11/7 
f 6/11/8 26/12/8 29/9/8 
f 30/9/4 31/17/4 32/18/4 
f 32/18/4 33/19/4 30/9/4 
f 34/13/1 35/1/1 31/4/1 
f 31/4/1 30/14/1 34/13/1 
f 35/15/2 36/16/2 32/4/2 
f 32/4/2 31/14/2 35/15/2 
f 37/1/1 38/2/1 39/3/1 
f 39/3/1 40/4/1 37/1/1 
f 41/1/1 42/2/1 43/3/1 
f 43/3/1 44/4/1 41/1/1 
f 45/5/2 46/6/2 39/7/2 
f 39/7/2 38/8/2 45/5/2 
f 46/9/4 30/10/4 40/11/4 
f 40/11/4 39/12/4 46/9/4 
f 47/5/2 48/6/2 43/7/2 
f 43/7/2 42/8/2 47/5/2 
f 48/9/4 49/10/4 44/11/4 
f 44/11/4 43/12/4 48/9/4 
f 11/13/1 50/1/1 35/4/1 
f 35/4/1 34/14/1 11/13/1 
f 50/15/2 51/16/2 36/4/2 
f 36/4/2 35/14/2 50/15/2 
f 3/1/1 8/2/1 52/3/1 
f 52/3/1 38/4/1 3/1/1 
f 7/1/1 53/2/1 54/3/1 
f 54/3/1 42/4/1 7/1/1 
f 14/5/9 55/6/9 52/7/9 
f 52/7/9 8/8/9 14/5/9 
f 55/9/6 45/10/6 38/11/6 
f 38/11/6 52/12/6 55/9/6 
f 50/5/2 56/6/2 54/7/2 
f 54/7/2 53/8/2 50/5/2 
f 56/9/4 47/10/4 42/11/4 
f 42/11/8 54/12/8 56/9/8 
f 15/13/1 16/1/1 57/4/1 
f 57/4/1 58/14/1 15/13/1 
f 16/15/2 19/16/2 59/4/2 
f 59/4/2 57/14/2 16/15/2 
f 21/1/1 22/2/1 23/3/1 
f 23/3/1 60/4/1 21/1/1 
f 24/1/1 25/2/1 26/3/1 
f 26/3/1 61/4/1 24/1/1 
f 27/5/2 28/6/2 23/7/2 
f 23/7/2 22/8/2 27/5/2 
f 28/9/10 9/10/10 60/11/10 
f 60/11/4 23/12/4 28/9/4 
f 16/5/2 57/6/2 26/7/2 
f 26/7/2 25/8/2 16/5/2 
f 57/9/11 12/10/11 61/11/11 
f 61/11/11 26/12/11 57/9/11 
f 58/13/1 57/1/1 50/4/1 
f 50/4/1 11/14/1 58/13/1 
f 57/15/2 59/16/2 51/4/2 
f 51/4/2 50/14/2 57/15/2 


